<svg width="1440" height="267" fill="none" xmlns="http://www.w3.org/2000/svg"><path d="M-1 158.7l17.5-13L31 156.4v14h9.5v-21.7L57.3 133l14.5 13.7v25h39.7V209H153v-33.3l15.6-14.8 16.7 15.8 18-7.3 13.3 8v14.3l16.2-8.7 14.1 7 13.7-23.3 13.7 20h4.6v-39.3h28.4v-16.7h2.9V108h2.4v22.7h18.3v56.7h26.4v9.6h17.6l19.7-18.6 16.1 15.3h7.8v-54h8.8v-12.3l13.7-13 14 12.3v13h11.3V104h3.9V79h7.3V46.4h2.5V79h6.7v24.7h4.6v26l16.8-16 16.7 15.8h27.3V170l17.6-16.6 15.6 14.8v19.2H602V178h116.9v8H749l17.9-17 15.5 14.7 43.3-41 23.5 22.3h11.3v-49.6L880 96.9l17.9 17V166H929V95.4h10.2v-21h4.6v-18h3.9V31h2.1v25h5.3v18h3.5v22h13v70.7h21.8V141l18.3-17.3 14.9 14.2 13.6-35.2 10.9 34.3v54.4l9.5-18.4 8 17.4 4.3-19 4.9 17.3h23.9l18.6-17.7 12.7 12 12.5-11.8 10 9.5v-54h31.6v54h24.7v-42.3h8.4v-11.7l14.1-13.3 13.7 13V140h13.7l14.9 14.2V168h26.2l17.3-16.3 14.7 14 14.8-14 13.5 12.8 12.5-11.8 13.2 12.5h33.9V69h17.3v196H.1L-1 158.7z" fill="#E3EBFC"/><path d="M795.3 263.8l2.7-33.2h6.8l-.7-3.4h5.8l-1-40.1-1.4-2v-18.3l-19.7-3.4-5.4-3.4-2.6-3.7-7-1.8-3.9-3.3 5.4.4 2.6-.3 4.5.9h5.9l16.5-.5 10.3-1.2.2-5.4 1.6-8 4-1.5 3.6 1.4 1.6 4.2v9.3l23.6 1.9 11.7-.6 2.4-.5 7.1-.1-2.1 2.4-5.3 1.3h-2.9l.2 2.2-1.8 1.5-2.2 2.6-4.9 1.8-5.4 1.1-4.6.3-3.2 1.2-3.1 1-2.7.5v41.1l-1.3 2.2v16.8h4.7v3.4h6.1l2.7 33.2h-48.8zM941.7 265.4v-30.3h4.8l1.1-18.8h3.4l1.4-33.7h5.3v-18.1s-13.9-14.8.5-25.5l8.9-13.2 8.3 13.2 3.3 1.7 4-9.4 5.5-5.6 8-12.3 7.6 11v-9.3l3.2 3.2 10.4-22 10.5 19.7.9 1.9 3.3-3.3v11.1l-2.2.1.5 8.9h2.3v10.6l3.4-1.7v15.6l3.2-7.1 11.5 13.7-.1-11.5-3.2-4.5-2.4-9 4.8-10.6 10-13.7 8.6 11.3 5 6.8 1.1 7.8-2.3 7-3.8 5.1 2.4 18.9h4.9l1.6 42.8 2.9.2 2.7 18.6v30.3H941.7v.1zM507.5 128.2l5.9-17.2-7.2-1.9 1.9-7.2 4.4-.7 4.4 3.4L528.7 92l-6.8-2.7 1.9-7.2 4.9-.7 5.6 5.3 13.2-10.2-4.6-4.2 1.9-7.3 5-.7 3 6.9 2.3 1.6 15.9-6.9-5.3-5.3 5.3-5.3 4.6 2.6v7.6l15.9-2.4 3.4-1.6-2.4-4.9 4.6-5.3 4.3 2.7.7 2.6-2.6 4.6 11.1 3.1 8.8.2-2.3-5.4 4.9-4.6 5.6 2.1 1.9 3.4-2 3.4-1.7 4.2 15 4.9 1.9-5.6 7.7-1 3.2 4.7-1.4 3.7-3.9 4 13.6 9 1.6-3.2 5.2-3.4 5.5 4.1v3l-1.6 2.8-5.3 2.8 10.7 13.1 3.2-5.3 7 .6 1.8 6.3-2.2 3.7-6.6 1 7.1 15.8 4.9-2.3 5.3 1.7 1.5 4.2-2.2 4-4.2 2.3h-3.1l2 14.7 3.9-.4 4.5.4 3.2 5.6-3.9 4.4-8.6-.6-.7 16.4 4.2-1.3 4.5 4.7-.2 4.9-4.6 2.6-7.2-2.1-6.4 16.6 5.2.7 2.4 6.9-5.1 4.5-6.9-5.7-11.9 14.7 5.3.6.8 5.6-2.8 4.7-7.1-1.3-1.5-5.6-8.4 6-4.3 4.6 5.5 2.9-.9 5.8-5.5 3.8-3.8-3.1-.1-7.7-16.9 7.5 4 4.8-1.8 5.1-6.9 1.1-3.7-4.7 1.8-6.2-3.9 1.6.2 12.1-4.5-12.2-9.4 1.7 2.2 5.2-3.6 5.3h-6.5l-2.1-3.9 1.5-5.7-9.4-1.9-4.5 12.1-.3-13.6-2.4 6.7-3.9 3.8-6.1-4.5 2.5-7.9-12.8-4.2-1.5 7.4-6.7 1.2-3.6-5.3 4.8-7.3-15.5-10.9-5 4.8-7.6-4.1 4.8-6.5-2.3-6.8-6.9-7.5-4.5 4-6.7-3.7 2.7-5.9 4.3-2.5-5.6-14.9-4.8 3.5-5.3-2.4-1.3-5.5 2.9-3.3h4.3l3.4-.3-4.3-17.2-3.8 2.4-6-3.2.4-4 3.1-3.1 3.4-.3 3 2.6 2-18.8-6.8.4-1.6-7.5 2.6-2.4 5.6.9 4.4.4z" fill="#FCFCFE"/><path d="M511.4 111.4a5.3 5.3 0 1 0 0-10.6 5.3 5.3 0 0 0 0 10.6zM500.8 137.1a5.3 5.3 0 1 0 0-10.6 5.3 5.3 0 0 0 0 10.6zM497.3 162.8a5.3 5.3 0 1 0 0-10.6 5.3 5.3 0 0 0 0 10.6zM500.8 188.5a5.3 5.3 0 1 0 0-10.6 5.3 5.3 0 0 0 0 10.6zM510.3 211.8a5.3 5.3 0 1 0 0-10.6 5.3 5.3 0 0 0 0 10.6zM684.6 111.4a5.3 5.3 0 1 0 0-10.6 5.3 5.3 0 0 0 0 10.6zM694.2 137.1a5.3 5.3 0 1 0 0-10.6 5.3 5.3 0 0 0 0 10.6zM698.4 162.8a5.3 5.3 0 1 0 0-10.6 5.3 5.3 0 0 0 0 10.6zM683.6 214.9a5.3 5.3 0 1 0 0-10.6 5.3 5.3 0 0 0 0 10.6zM694.2 188.5a5.3 5.3 0 1 0 0-10.6 5.3 5.3 0 0 0 0 10.6zM597.4 61.5a5.3 5.3 0 1 0 0-10.6 5.3 5.3 0 0 0 0 10.6zM571.6 65.5a5.3 5.3 0 1 0 0-10.6 5.3 5.3 0 0 0 0 10.6zM548.1 74.6a5.3 5.3 0 1 0 0-10.6 5.3 5.3 0 0 0 0 10.6zM527.1 91.6a5.3 5.3 0 1 0 0-10.6 5.3 5.3 0 0 0 0 10.6zM527.1 233.6a5.3 5.3 0 1 0 0-10.6 5.3 5.3 0 0 0 0 10.6zM550.4 252.3a5.3 5.3 0 1 0 0-10.6 5.3 5.3 0 0 0 0 10.6zM623.6 65.5a5.3 5.3 0 1 0 0-10.6 5.3 5.3 0 0 0 0 10.6zM647.5 76.1a5.3 5.3 0 1 0 0-10.6 5.3 5.3 0 0 0 0 10.6zM668.7 91.6a5.3 5.3 0 1 0 0-10.6 5.3 5.3 0 0 0 0 10.6zM597.4 263.1a5.3 5.3 0 1 0 0-10.6 5.3 5.3 0 0 0 0 10.6zM571.6 259.6a5.3 5.3 0 1 0 0-10.6 5.3 5.3 0 0 0 0 10.6zM623.6 259.6a5.3 5.3 0 1 0 0-10.6 5.3 5.3 0 0 0 0 10.6zM647.5 251.1a5.3 5.3 0 1 0 0-10.6 5.3 5.3 0 0 0 0 10.6zM666.4 235.7a5.3 5.3 0 1 0 0-10.6 5.3 5.3 0 0 0 0 10.6z" stroke="#CBDBF7" stroke-width="3" stroke-miterlimit="10"/><path d="M597.4 241.1c46.171 0 83.6-37.429 83.6-83.6 0-46.171-37.429-83.6-83.6-83.6-46.171 0-83.6 37.429-83.6 83.6 0 46.171 37.429 83.6 83.6 83.6z" stroke="#CBDBF7" stroke-miterlimit="10"/><path d="M597.4 252.3c52.356 0 94.8-42.443 94.8-94.8s-42.444-94.8-94.8-94.8c-52.357 0-94.8 42.443-94.8 94.8s42.443 94.8 94.8 94.8z" stroke="#CBDBF7" stroke-width="3" stroke-miterlimit="10"/><path d="M681.6 163.6l10.6-6.1-10.7-7.1 9.2-9.9L679 136l7.4-11.1-12.4-2.8 5.3-12.3H667l3.6-12.5h-14.1l2.3-12-13.8 2.5-.9-12.8-12.3 5.4-1.2-11.7-12.3 7-4.1-11.5-10.5 9.2-6.3-10.7-6.2 10.7-10.3-9.2-4 11.5-12.4-7.1-1.7 12-12-5.6.7 11.7-12.3-3.9 1.7 12-11.6-3.2 3.8 11.3-13-.2 5.5 10.5-12.5 1.1 7 9.4-12 2.1 7.9 9.7-11.7 4.3 8.8 8-10.4 7.2 10.4 5.7-9.7 8.2 11.1 4.1-8.3 10.2 11.8 2.9-7.5 9.2 11.8.6-5.8 10.9 11.6-1.2-5.1 10.6 12.3-1.6-3.6 11 12.5-2.6-2.1 11.4 11.3-4.9-.7 11.6 11.4-6.1 2 12 11.2-7.5 3.6 11.3 9-9.3 5.2 10.7 7.5-10.3 7.3 9.6 4.8-11.4 9.7 8.3 2.2-11.7 9.7 7.3 1.3-12.3 11.5 5.2-1.6-11.5 11.4 4.2-1.9-12.3 11.3 3.1-3.6-11.9 12.4.3-5.7-10.6 12.2-1.2-6.8-10.7 11.4-1.6-8.4-9 11.2-3.4-9.4-8.7z" stroke="#CBDBF7" stroke-miterlimit="10"/><path d="M602.7 157.5c0 1.4-.5 2.7-1.4 3.6-1 1-2.3 1.7-3.9 1.7-2.9 0-5.3-2.4-5.3-5.3s2.4-5.3 5.3-5.3 5.3 2.4 5.3 5.3z" stroke="#CBDBF7" stroke-width="3" stroke-miterlimit="10"/><path d="M615.5 264.4s-.1-60.6-14.2-103.3M578.9 264.4s.1-60.6 14.2-103.3M578.9 264.4s18.2-56.6 18.5-101.6M615.3 264.4s-17.2-56.6-17.5-101.6" stroke="#CBDBF7" stroke-miterlimit="10"/><path d="M641.4 264.3v-120h-2v-30h3l1-12 7-13v-14l6-21 7 20 1 14 6 14 1 12h4l-1 30h-4l1 7v113h-30z" fill="#FCFCFE"/><path d="M656.9 34.1v17l7 23v15l7 13v11h4v31h-3v120M656.9 34.1v17l-7 23v15l-7 13v11h-4v31h3v120" stroke="#CBDBF7" stroke-width="3" stroke-miterlimit="10" stroke-linecap="round" stroke-linejoin="round"/><path d="M641.9 144.1h30M645.6 144.1v120M666.9 144.1v120M642.9 113.3h29M638.9 117.3h36M638.9 138.6h36M667.9 117.3v21.3M645.6 117.3v21.3M656.9 136.1a8 8 0 1 0 0-16 8 8 0 0 0 0 16zM640.9 247.1h30M640.9 251.8h30M641.9 220.1h30M641.9 224.8h30M641.9 193.1h30M641.9 197.8h30M641.9 166.1h30M641.9 170.8h30M642.9 104h28M642.9 107h28M649.9 76.5h14M649.9 81.5h14M649.9 88.5h14M663.9 229.1v13M649.9 229.1v13M656.9 229.1v13M663.9 202.1v13M649.9 202.1v13M656.9 202.1v13M663.9 175.1v13M649.9 175.1v13M656.9 175.1v13M663.9 149.1v13M649.9 149.1v13M656.9 149.1v13" stroke="#CBDBF7" stroke-miterlimit="10" stroke-linecap="round" stroke-linejoin="round"/><path d="M1017.7 61.1v13.5M1015.6 64.1h4.1M1035.8 232.7h-94.2v29.9M1082.7 262.6v-29.9h-24.3M1035.8 262.6v-29.9h22.6v29.9M1035.8 232.7l11.3-23.3 11.3 23.3M946.3 232.7l1.2-18.6h15.6v-7.7h17.1M1015.6 232.7l-9-74.9" stroke="#CBDBF7" stroke-width="3" stroke-miterlimit="10" stroke-linecap="round" stroke-linejoin="round"/><path d="M986.1 157.8h-.1l-2.6 21.7-.4 3.3-1.6 13.4-4.3 36.5" stroke="#CBDBF7" stroke-width="3" stroke-miterlimit="10" stroke-linecap="round" stroke-linejoin="round"/><path d="M941.6 245.2h94.2M1058.4 245.2h24.3" stroke="#CBDBF7" stroke-miterlimit="10" stroke-linecap="round" stroke-linejoin="round"/><path d="M1050.2 214.4h29.7l2.8 18.3M950.9 214.1l1.3-33.2h12M957.5 163v17.9M1068.2 153.2l2.3 18.7M1077 214.1l-1.6-42.2h-25.8M1051 153.2l-1 13.3M1053.4 214.1v-14.7h-28.5v15h19.8M1049.6 188.3h-21.1v11.1h21.1v-11.1zM1032.4 188.3v-9.7M1046.2 188.3V178M965.6 206.4v-10.2H981.4M969 188.3v7.9M1035.8 155.3v-12.9h-3.4v-8.9h-20.1M1029.7 133.5v-8.8h-25M1029.7 124.7h2.1v-11l-3.3 3.3-1.7 1.7-4.2-4.3-4.4 4.5-4.4-4.4-5 5-2-2.1-3.2-3.1v9.1M1068.2 126.8c3.8 2.8 6.2 7.5 6.2 12.8 0 8.7-6.6 15.7-14.8 15.7-8.2 0-14.8-7-14.8-15.7 0-5.3 2.4-9.9 6.2-12.8M1068.2 126.8c-5.7-5.2-8.1-12.6-8.3-13.1" stroke="#CBDBF7" stroke-width="3" stroke-miterlimit="10" stroke-linecap="round" stroke-linejoin="round"/><path d="M1051 126.8c5.7-5.2 8.7-12.6 8.9-13.1.1.5 2.6 7.9 8.3 13.1M958 137.8c-3.8 2.8-6.2 7.5-6.2 12.8 0 8.7 6.6 15.7 14.8 15.7 7.6 0 13.8-6 14.7-13.8M978.5 141.2c-.9-1.3-2-2.5-3.3-3.4M975.2 137.8c-5.7-5.2-8.1-12.6-8.3-13.1" stroke="#CBDBF7" stroke-width="3" stroke-miterlimit="10" stroke-linecap="round" stroke-linejoin="round"/><path d="M958 137.8c5.7-5.2 8.7-12.6 8.9-13.1.1.5 2.6 7.9 8.3 13.1M1045.5 159.1c2.9 2.2 4.7 5.7 4.7 9.7 0 6.6-5 12-11.3 12-6.3 0-11.3-5.4-11.3-12 0-4 1.9-7.6 4.7-9.7M1045.5 159.1c-4.4-4-6.2-9.6-6.3-10" stroke="#CBDBF7" stroke-width="3" stroke-miterlimit="10" stroke-linecap="round" stroke-linejoin="round"/><path d="M1032.4 159.1c4.4-4 6.7-9.6 6.8-10 .1.4 2 6 6.3 10M979.7 172.3c2.3 1.7 3.7 4.5 3.7 7.7 0 5.2-4 9.5-8.9 9.5s-8.9-4.2-8.9-9.5c0-3.2 1.5-6 3.7-7.7M979.7 172.3c-3.4-3.1-4.9-7.6-5-7.9" stroke="#CBDBF7" stroke-width="3" stroke-miterlimit="10" stroke-linecap="round" stroke-linejoin="round"/><path d="M969.3 172.3c3.4-3.1 5.3-7.6 5.4-7.9.1.3 1.6 4.7 5 7.9M1006.8 126.8c4.5 3.4 7.5 9.1 7.5 15.4 0 10.5-8 19-17.9 19-9.9 0-17.9-8.5-17.9-19 0-6.4 2.9-12 7.5-15.4M1006.8 126.8c-6.9-6.3-9.8-15.2-10-15.8" stroke="#CBDBF7" stroke-width="3" stroke-miterlimit="10" stroke-linecap="round" stroke-linejoin="round"/><path d="M986 126.8c6.9-6.3 10.5-15.2 10.8-15.8.2.6 3.1 9.5 10 15.8M1006.8 117.4l10.9-22.8 10.8 22.4M1017.7 84.6v10M1017.7 84.6a5 5 0 0 0 0-10 5 5 0 0 0 0 10zM1039 137.2v13.6M1036.9 140.2h4.1M996.8 97.4V111M994.8 100.4h4M967 112.1v13.6M964.9 115.1h4.1M1059.9 101.5v13.6M1057.8 104.5h4.1M974.7 152.3v13.6M972.6 155.4h4.1" stroke="#CBDBF7" stroke-width="3" stroke-miterlimit="10" stroke-linecap="round" stroke-linejoin="round"/><path d="M979.1 215.6h34.5M978.2 223.5h36.3M983.4 188.3h26.8M990.9 188.3c0-5.1 2.5-9.2 5.5-9.2s5.5 4.1 5.5 9.2M983.4 179.6c.6-.3 1.2-.5 1.8-.5 3 0 5.5 4.1 5.5 9.2" stroke="#CBDBF7" stroke-miterlimit="10" stroke-linecap="round" stroke-linejoin="round"/><path d="M1001.8 188.3c0-5.1 2.5-9.2 5.5-9.2.7 0 1.3.2 1.9.6" stroke="#CBDBF7" stroke-miterlimit="10" stroke-linecap="round" stroke-linejoin="round"/><path d="M1024.9 232.7v-18.3" stroke="#CBDBF7" stroke-width="3" stroke-miterlimit="10" stroke-linecap="round" stroke-linejoin="round"/><path d="M978.5 142.2l27.4-16.3M981.3 152.4l31-18.9M988.3 159.1l25.9-15.1M983.5 129.1l17.8-10.5M1051 128.1l4.1 4.5 4.6-4.5 4.5 4.5 4.5-4.5M1045.5 137.1l5.1-4.5 4.5 4.5 4.6-4.5 4.3 4.5 4.7-4.5 4.9 4.5M1074.3 139.2l-1.7 2.5-3.9-4.6-4.5 4.6-4.5-4.6-4.6 4.6-4.5-4.6-3.3 4.6-2.5-2.3M1044.8 142.6l2.3 3.6 3.5-4.5 4.5 4.5 4.5-4.5 4.6 4.5 4.5-4.5 3.7 4.5 1.9-2.3M1047.3 150.9l3.3-4.7 4.5 4.7 4.5-4.7 4.6 4.5 4.5-4.5 3.3 4.5" stroke="#CBDBF7" stroke-miterlimit="10" stroke-linecap="round" stroke-linejoin="round"/><path d="M860.4 151.8s2.7-1.4 2.7 0c0 0 6.1-1.4 6.8-.7.7.7-2.7 4.2-10.9 5.1" stroke="#CBDBF7" stroke-width="3" stroke-miterlimit="10" stroke-linecap="round" stroke-linejoin="round"/><path d="M819.6 135.6s4.1 0 4.8 3.4c.7 3.4.7 3.4.7 6.1v5.4s27.1 3.4 34.6 1.4c0 0 .7 12.2-12.9 12.2l-14.9 2.7v42.1l-1.4-1.4v19.7h4.8v3.4h6.1l2.7 33.3M819.6 135.6s-4.1 0-4.8 3.4c-.7 3.4-.7 3.4-.7 6.1v5.4s-27.1 3.4-34.6 1.4c0 0-.7 12.2 12.9 12.2l14.9 2.7v19.7l1.4.7v40h-4.8v3.4h-6.1l-2.7 33.3" stroke="#CBDBF7" stroke-width="3" stroke-miterlimit="10" stroke-linecap="round" stroke-linejoin="round"/><path d="M778.3 151.8s-2.7-1.4-2.7 0c0 0-6.1-1.4-6.8-.7-.7.7 2.7 4.2 10.9 5.1" stroke="#CBDBF7" stroke-width="3" stroke-miterlimit="10" stroke-linecap="round" stroke-linejoin="round"/><path d="M814.2 145.6s.7 5.6 5.4 5.6 5.4-5.6 5.4-5.6" stroke="#CBDBF7" stroke-miterlimit="10" stroke-linecap="round" stroke-linejoin="round"/><path d="M814 150.5s4.2 3.4 5.6 3.4c1.4 0 5.4-3.4 5.4-3.4M819.5 135.6h.4M802.1 151.7c0 .5-.1 1-.1 1.5 0 9.1 6.8 16.5 15.6 17.5" stroke="#CBDBF7" stroke-miterlimit="10" stroke-linecap="round" stroke-linejoin="round"/><path d="M806.9 151.3c-.1.6-.1 1.3-.1 1.9 0 6.4 4.7 11.8 10.9 12.7M831.8 208.2l-5.8-2.8M826 197.2l-17.2-10.1M825.7 160l.3 45.4M828 227.2v-20.9M826 227.2v-29.9M824 227.2v-31.1M821.9 227.2v-32.3M819.9 227.2v-33.5M817.9 227.2v-34.7M815.8 227.2v-35.9M813.8 227.2v-37.1M811.8 188.9v38.3M808.3 227.2h22.2M804 230.6h31.2" stroke="#CBDBF7" stroke-miterlimit="10" stroke-linecap="round" stroke-linejoin="round"/><path d="M380.6 263.8l9.4-28.5-4-9.8 4-9.9 4-1 .6-18.9-7.8-7.5.8-9.8 9.9-5.7 8.6 3.8v-1.7l15.4-9.8.4-8.5 7.2-6.8 8.5 1.2 6.9 6.7v4.6l-.6 3.4 15 9.9 10-2.4 6.3 2.5 2.7 10-4.1 7.4-5.3 2.7v18.4l7.5 4.9 2 6.5-1.9 6.5-3.5 4.8 3.7 6.5 4.2 9 5.4 11.5-12.2.3-3.6-13.2-3.6-11.4-.3-2.5-7.2-1.7-3.1-1.2-10.5 5.9-.6 4.1-4.8 8.3v2.4l4.4.4v8.6h-22.7l.2-8.7 5.8.1-6.1-10.6-.7-4.7-9-4.6-3.7-2.4-5.8 4.3-5.6.8-4.4 25.8h-11.8z" fill="#FCFCFE"/><path d="M432.4 173.3c6.351 0 11.5-5.149 11.5-11.5s-5.149-11.5-11.5-11.5-11.5 5.149-11.5 11.5 5.149 11.5 11.5 11.5zM466.5 237.7c6.351 0 11.5-5.149 11.5-11.5s-5.149-11.5-11.5-11.5-11.5 5.149-11.5 11.5 5.149 11.5 11.5 11.5zM433 255.4c6.351 0 11.5-5.149 11.5-11.5s-5.149-11.5-11.5-11.5-11.5 5.149-11.5 11.5 5.149 11.5 11.5 11.5zM397.5 237.7c6.351 0 11.5-5.149 11.5-11.5s-5.149-11.5-11.5-11.5-11.5 5.149-11.5 11.5 5.149 11.5 11.5 11.5zM397.5 196.3c6.351 0 11.5-5.149 11.5-11.5s-5.149-11.5-11.5-11.5-11.5 5.149-11.5 11.5 5.149 11.5 11.5 11.5zM466.5 196.3c6.351 0 11.5-5.149 11.5-11.5s-5.149-11.5-11.5-11.5-11.5 5.149-11.5 11.5 5.149 11.5 11.5 11.5z" stroke="#CBDBF7" stroke-width="3" stroke-miterlimit="10" stroke-linecap="round" stroke-linejoin="round"/><path d="M429.1 173.3v26L409 187.8M435 174.7v24.6l20-12.3M459 193.5l-21.4 12.7 21.4 11.3M405 193.5l21.1 12-21.1 12M409 222.2l20.1-11.1v22M435 232.6v-21.5l20.8 10.9" stroke="#CBDBF7" stroke-miterlimit="10" stroke-linecap="round" stroke-linejoin="round"/><path d="M443.9 165.3l15 9.8" stroke="#CBDBF7" stroke-width="3" stroke-miterlimit="10" stroke-linecap="round" stroke-linejoin="round"/><path d="M440 170.4l15 9.8M424.7 170.4l-15.7 9.8" stroke="#CBDBF7" stroke-miterlimit="10" stroke-linecap="round" stroke-linejoin="round"/><path d="M420.9 166.3l-15.9 9.8M468.5 196.1v17.8" stroke="#CBDBF7" stroke-width="3" stroke-miterlimit="10" stroke-linecap="round" stroke-linejoin="round"/><path d="M462.9 196.3v19M400.2 196.3v19" stroke="#CBDBF7" stroke-miterlimit="10" stroke-linecap="round" stroke-linejoin="round"/><path d="M394 195.7v18.6" stroke="#CBDBF7" stroke-width="3" stroke-miterlimit="10" stroke-linecap="round" stroke-linejoin="round"/><path d="M409.8 227.8l15.7 8.2M455.5 229.7l-14.3 6.9" stroke="#CBDBF7" stroke-miterlimit="10" stroke-linecap="round" stroke-linejoin="round"/><path d="M467.3 237.7l6.2 25.8M473 235.7l12.9 27.8M396.8 237.7l-4.4 25.8M390 234.9l-9.4 28.6M407.6 232.7l14.3 7.4M444.5 240.1l13.3-6.4M444.4 255.7h-22.8v7.8h22.8v-7.8z" stroke="#CBDBF7" stroke-width="3" stroke-miterlimit="10" stroke-linecap="round" stroke-linejoin="round"/><path d="M152 263.9v-55.6h30.8V201h4.7v-7.7h27.9v-7.7h3.8v-11.4h5v-9.8h3v-84h4v-21l1.9-5.1.6-3.9.9-5.9 1.9-1.7 1.1-9.3 1-9.4 2.6-2.3 3.8 2.1v7.5l2.1 6.9v6.2l1.9 1 1.5 6.7.8 4 1.1 22.8 4 1.8v75.4h29.3v58.3H324v2.5l-2.2 2.1v44.8H152z" fill="#FCFCFE"/><path d="M246.9 183.5h-1.3c-.7 0-1.2-.6-1.2-1.2 0-.7.6-1.2 1.2-1.2h1.3c.7 0 1.2.6 1.2 1.2s-.5 1.2-1.2 1.2zM236.7 183.5h-1.3c-.7 0-1.2-.6-1.2-1.2 0-.7.6-1.2 1.2-1.2h1.3c.7 0 1.2.6 1.2 1.2.1.6-.5 1.2-1.2 1.2zM241.8 183.5h-1.3c-.7 0-1.2-.6-1.2-1.2 0-.7.6-1.2 1.2-1.2h1.3c.7 0 1.2.6 1.2 1.2.1.6-.5 1.2-1.2 1.2z" stroke="#CBDBF7" stroke-miterlimit="10" stroke-linecap="round" stroke-linejoin="round"/><path d="M210.6 264.2v-55.9h4.2v-22.4h3.8v-11.4h5.1v-9.7h3v-84h4V65.1s-.1-9 1.9-9.1v-5.3h1.5v-5.9h1.9v-6.1h1.1v-4.9h1.1V30s-.6-6.9 3.2-6.9" stroke="#CBDBF7" stroke-width="3" stroke-miterlimit="10" stroke-linecap="round" stroke-linejoin="round"/><path d="M272 264.2v-55.9h-4.2v-22.4H264v-11.4h-5.1v-9.7h-3v-84h-4V65.1s.1-9-1.9-9.1v-5.3h-1.5v-5.9h-1.9v-6.1h-1v-4.9h-1.1V30s.6-6.9-3.2-6.9V2" stroke="#CBDBF7" stroke-width="3" stroke-miterlimit="10" stroke-linecap="round" stroke-linejoin="round"/><path d="M232.6 55.8s7.2-9.8 17.4 0M234.1 50.7s5.9-9.8 14.4 0M236 44.8s4.4-7.3 10.6 0M237.1 38.7s3.7-7.1 8.5 0M238.1 33.8s2.8-9.3 6.4 0M246.6 80.8V62.2c0-3.1-2.5-5.6-5.6-5.6-3.1 0-5.6 2.5-5.6 5.6v18.6M251.9 80.8h-5.3M235.4 80.8h-4.7M226.7 164.8h29.2M223.7 174.5h6.9v68.6h21.7V174.3h6.6M214.8 209.2h15.8M267.8 209.2h-15.5M218.7 185.9h11.9M252.3 185.9H264M210.6 254.9h25.2s-.4-6.4 5.5-6.3c5.9.1 5.1 6.3 5.1 6.3H272M252 164h-1.4c-.7 0-1.2-.6-1.2-1.2 0-.7.6-1.2 1.2-1.2h1.3c.7 0 1.2.6 1.2 1.2.1.7-.4 1.2-1.1 1.2z" stroke="#CBDBF7" stroke-miterlimit="10" stroke-linecap="round" stroke-linejoin="round"/><path d="M228.5 183.3h-1.3c-.7 0-1.2-.6-1.2-1.2 0-.7.6-1.2 1.2-1.2h1.3c.7 0 1.2.6 1.2 1.2s-.5 1.2-1.2 1.2zM223.4 183.3h-1.3c-.7 0-1.2-.6-1.2-1.2 0-.7.6-1.2 1.2-1.2h1.3c.7 0 1.2.6 1.2 1.2s-.5 1.2-1.2 1.2zM228.5 179h-1.3c-.7 0-1.2-.6-1.2-1.2 0-.7.6-1.2 1.2-1.2h1.3c.7 0 1.2.6 1.2 1.2 0 .7-.5 1.2-1.2 1.2zM223.4 179h-1.3c-.7 0-1.2-.6-1.2-1.2 0-.7.6-1.2 1.2-1.2h1.3c.7 0 1.2.6 1.2 1.2 0 .7-.5 1.2-1.2 1.2zM261 183.5h-1.3c-.7 0-1.2-.6-1.2-1.2 0-.7.6-1.2 1.2-1.2h1.3c.7 0 1.2.6 1.2 1.2s-.5 1.2-1.2 1.2zM255.9 183.5h-1.3c-.7 0-1.2-.6-1.2-1.2 0-.7.6-1.2 1.2-1.2h1.3c.7 0 1.2.6 1.2 1.2.1.6-.5 1.2-1.2 1.2zM261 179.2h-1.3c-.7 0-1.2-.6-1.2-1.2 0-.7.6-1.2 1.2-1.2h1.3c.7 0 1.2.6 1.2 1.2 0 .7-.5 1.2-1.2 1.2zM255.9 179.2h-1.3c-.7 0-1.2-.6-1.2-1.2 0-.7.6-1.2 1.2-1.2h1.3c.7 0 1.2.6 1.2 1.2.1.7-.5 1.2-1.2 1.2zM228.1 208h-.8c-.7 0-1.2-.6-1.2-1.2 0-.7.6-1.2 1.2-1.2h.8c.7 0 1.2.6 1.2 1.2 0 .7-.6 1.2-1.2 1.2zM219.3 208h-.8c-.7 0-1.2-.6-1.2-1.2 0-.7.6-1.2 1.2-1.2h.8c.7 0 1.2.6 1.2 1.2 0 .7-.5 1.2-1.2 1.2zM223.7 208h-.8c-.7 0-1.2-.6-1.2-1.2 0-.7.6-1.2 1.2-1.2h.8c.7 0 1.2.6 1.2 1.2 0 .7-.5 1.2-1.2 1.2zM228.1 203.8h-.8c-.7 0-1.2-.6-1.2-1.2 0-.7.6-1.2 1.2-1.2h.8c.7 0 1.2.6 1.2 1.2s-.6 1.2-1.2 1.2zM219.3 203.8h-.8c-.7 0-1.2-.6-1.2-1.2 0-.7.6-1.2 1.2-1.2h.8c.7 0 1.2.6 1.2 1.2s-.5 1.2-1.2 1.2zM223.7 203.8h-.8c-.7 0-1.2-.6-1.2-1.2 0-.7.6-1.2 1.2-1.2h.8c.7 0 1.2.6 1.2 1.2s-.5 1.2-1.2 1.2zM228.1 199.6h-.8c-.7 0-1.2-.6-1.2-1.2 0-.7.6-1.2 1.2-1.2h.8c.7 0 1.2.6 1.2 1.2s-.6 1.2-1.2 1.2zM219.3 199.6h-.8c-.7 0-1.2-.6-1.2-1.2 0-.7.6-1.2 1.2-1.2h.8c.7 0 1.2.6 1.2 1.2s-.5 1.2-1.2 1.2zM223.7 199.6h-.8c-.7 0-1.2-.6-1.2-1.2 0-.7.6-1.2 1.2-1.2h.8c.7 0 1.2.6 1.2 1.2s-.5 1.2-1.2 1.2zM228.1 195.3h-.8c-.7 0-1.2-.6-1.2-1.2 0-.7.6-1.2 1.2-1.2h.8c.7 0 1.2.6 1.2 1.2 0 .7-.6 1.2-1.2 1.2zM219.3 195.3h-.8c-.7 0-1.2-.6-1.2-1.2 0-.7.6-1.2 1.2-1.2h.8c.7 0 1.2.6 1.2 1.2 0 .7-.5 1.2-1.2 1.2zM223.7 195.3h-.8c-.7 0-1.2-.6-1.2-1.2 0-.7.6-1.2 1.2-1.2h.8c.7 0 1.2.6 1.2 1.2 0 .7-.5 1.2-1.2 1.2zM228.1 191.1h-.8c-.7 0-1.2-.6-1.2-1.2 0-.7.6-1.2 1.2-1.2h.8c.7 0 1.2.6 1.2 1.2s-.6 1.2-1.2 1.2zM219.3 191.1h-.8c-.7 0-1.2-.6-1.2-1.2 0-.7.6-1.2 1.2-1.2h.8c.7 0 1.2.6 1.2 1.2s-.5 1.2-1.2 1.2zM223.7 191.1h-.8c-.7 0-1.2-.6-1.2-1.2 0-.7.6-1.2 1.2-1.2h.8c.7 0 1.2.6 1.2 1.2s-.5 1.2-1.2 1.2zM264.5 208h-.9c-.7 0-1.2-.6-1.2-1.2 0-.7.6-1.2 1.2-1.2h.8c.7 0 1.2.6 1.2 1.2.1.7-.5 1.2-1.1 1.2zM255.7 208h-.8c-.7 0-1.2-.6-1.2-1.2 0-.7.6-1.2 1.2-1.2h.8c.7 0 1.2.6 1.2 1.2 0 .7-.5 1.2-1.2 1.2zM260.1 208h-.8c-.7 0-1.2-.6-1.2-1.2 0-.7.6-1.2 1.2-1.2h.8c.7 0 1.2.6 1.2 1.2 0 .7-.5 1.2-1.2 1.2zM264.5 203.8h-.9c-.7 0-1.2-.6-1.2-1.2 0-.7.6-1.2 1.2-1.2h.8c.7 0 1.2.6 1.2 1.2.1.6-.5 1.2-1.1 1.2zM255.7 203.8h-.8c-.7 0-1.2-.6-1.2-1.2 0-.7.6-1.2 1.2-1.2h.8c.7 0 1.2.6 1.2 1.2s-.5 1.2-1.2 1.2zM260.1 203.8h-.8c-.7 0-1.2-.6-1.2-1.2 0-.7.6-1.2 1.2-1.2h.8c.7 0 1.2.6 1.2 1.2s-.5 1.2-1.2 1.2zM264.5 199.6h-.9c-.7 0-1.2-.6-1.2-1.2 0-.7.6-1.2 1.2-1.2h.8c.7 0 1.2.6 1.2 1.2.1.6-.5 1.2-1.1 1.2zM255.7 199.6h-.8c-.7 0-1.2-.6-1.2-1.2 0-.7.6-1.2 1.2-1.2h.8c.7 0 1.2.6 1.2 1.2s-.5 1.2-1.2 1.2zM260.1 199.6h-.8c-.7 0-1.2-.6-1.2-1.2 0-.7.6-1.2 1.2-1.2h.8c.7 0 1.2.6 1.2 1.2s-.5 1.2-1.2 1.2zM264.5 195.3h-.9c-.7 0-1.2-.6-1.2-1.2 0-.7.6-1.2 1.2-1.2h.8c.7 0 1.2.6 1.2 1.2.1.7-.5 1.2-1.1 1.2zM255.7 195.3h-.8c-.7 0-1.2-.6-1.2-1.2 0-.7.6-1.2 1.2-1.2h.8c.7 0 1.2.6 1.2 1.2 0 .7-.5 1.2-1.2 1.2zM260.1 195.3h-.8c-.7 0-1.2-.6-1.2-1.2 0-.7.6-1.2 1.2-1.2h.8c.7 0 1.2.6 1.2 1.2 0 .7-.5 1.2-1.2 1.2zM264.5 191.1h-.9c-.7 0-1.2-.6-1.2-1.2 0-.7.6-1.2 1.2-1.2h.8c.7 0 1.2.6 1.2 1.2.1.6-.5 1.2-1.1 1.2zM255.7 191.1h-.8c-.7 0-1.2-.6-1.2-1.2 0-.7.6-1.2 1.2-1.2h.8c.7 0 1.2.6 1.2 1.2s-.5 1.2-1.2 1.2zM260.1 191.1h-.8c-.7 0-1.2-.6-1.2-1.2 0-.7.6-1.2 1.2-1.2h.8c.7 0 1.2.6 1.2 1.2s-.5 1.2-1.2 1.2zM246.9 238.5h-1.3c-.7 0-1.2-.6-1.2-1.2 0-.7.6-1.2 1.2-1.2h1.3c.7 0 1.2.6 1.2 1.2s-.5 1.2-1.2 1.2zM236.7 238.5h-1.3c-.7 0-1.2-.6-1.2-1.2 0-.7.6-1.2 1.2-1.2h1.3c.7 0 1.2.6 1.2 1.2.1.6-.5 1.2-1.2 1.2zM241.8 238.5h-1.3c-.7 0-1.2-.6-1.2-1.2 0-.7.6-1.2 1.2-1.2h1.3c.7 0 1.2.6 1.2 1.2.1.6-.5 1.2-1.2 1.2zM246.9 234.3h-1.3c-.7 0-1.2-.6-1.2-1.2 0-.7.6-1.2 1.2-1.2h1.3c.7 0 1.2.6 1.2 1.2s-.5 1.2-1.2 1.2zM236.7 234.3h-1.3c-.7 0-1.2-.6-1.2-1.2 0-.7.6-1.2 1.2-1.2h1.3c.7 0 1.2.6 1.2 1.2.1.6-.5 1.2-1.2 1.2zM241.8 234.3h-1.3c-.7 0-1.2-.6-1.2-1.2 0-.7.6-1.2 1.2-1.2h1.3c.7 0 1.2.6 1.2 1.2.1.6-.5 1.2-1.2 1.2zM246.9 230h-1.3c-.7 0-1.2-.6-1.2-1.2 0-.7.6-1.2 1.2-1.2h1.3c.7 0 1.2.6 1.2 1.2 0 .7-.5 1.2-1.2 1.2zM236.7 230h-1.3c-.7 0-1.2-.6-1.2-1.2 0-.7.6-1.2 1.2-1.2h1.3c.7 0 1.2.6 1.2 1.2.1.7-.5 1.2-1.2 1.2zM241.8 230h-1.3c-.7 0-1.2-.6-1.2-1.2 0-.7.6-1.2 1.2-1.2h1.3c.7 0 1.2.6 1.2 1.2.1.7-.5 1.2-1.2 1.2zM246.9 225.8h-1.3c-.7 0-1.2-.6-1.2-1.2 0-.7.6-1.2 1.2-1.2h1.3c.7 0 1.2.6 1.2 1.2s-.5 1.2-1.2 1.2zM236.7 225.8h-1.3c-.7 0-1.2-.6-1.2-1.2 0-.7.6-1.2 1.2-1.2h1.3c.7 0 1.2.6 1.2 1.2.1.6-.5 1.2-1.2 1.2zM241.8 225.8h-1.3c-.7 0-1.2-.6-1.2-1.2 0-.7.6-1.2 1.2-1.2h1.3c.7 0 1.2.6 1.2 1.2.1.6-.5 1.2-1.2 1.2zM246.9 221.6h-1.3c-.7 0-1.2-.6-1.2-1.2 0-.7.6-1.2 1.2-1.2h1.3c.7 0 1.2.6 1.2 1.2s-.5 1.2-1.2 1.2zM236.7 221.6h-1.3c-.7 0-1.2-.6-1.2-1.2 0-.7.6-1.2 1.2-1.2h1.3c.7 0 1.2.6 1.2 1.2.1.6-.5 1.2-1.2 1.2zM241.8 221.6h-1.3c-.7 0-1.2-.6-1.2-1.2 0-.7.6-1.2 1.2-1.2h1.3c.7 0 1.2.6 1.2 1.2.1.6-.5 1.2-1.2 1.2zM246.9 217.3h-1.3c-.7 0-1.2-.6-1.2-1.2 0-.7.6-1.2 1.2-1.2h1.3c.7 0 1.2.6 1.2 1.2 0 .7-.5 1.2-1.2 1.2zM236.7 217.3h-1.3c-.7 0-1.2-.6-1.2-1.2 0-.7.6-1.2 1.2-1.2h1.3c.7 0 1.2.6 1.2 1.2.1.7-.5 1.2-1.2 1.2zM241.8 217.3h-1.3c-.7 0-1.2-.6-1.2-1.2 0-.7.6-1.2 1.2-1.2h1.3c.7 0 1.2.6 1.2 1.2.1.7-.5 1.2-1.2 1.2zM246.9 213.1h-1.3c-.7 0-1.2-.6-1.2-1.2 0-.7.6-1.2 1.2-1.2h1.3c.7 0 1.2.6 1.2 1.2s-.5 1.2-1.2 1.2zM236.7 213.1h-1.3c-.7 0-1.2-.6-1.2-1.2 0-.7.6-1.2 1.2-1.2h1.3c.7 0 1.2.6 1.2 1.2.1.6-.5 1.2-1.2 1.2zM241.8 213.1h-1.3c-.7 0-1.2-.6-1.2-1.2 0-.7.6-1.2 1.2-1.2h1.3c.7 0 1.2.6 1.2 1.2.1.6-.5 1.2-1.2 1.2zM246.9 208.9h-1.3c-.7 0-1.2-.6-1.2-1.2 0-.7.6-1.2 1.2-1.2h1.3c.7 0 1.2.6 1.2 1.2s-.5 1.2-1.2 1.2zM236.7 208.9h-1.3c-.7 0-1.2-.6-1.2-1.2 0-.7.6-1.2 1.2-1.2h1.3c.7 0 1.2.6 1.2 1.2.1.6-.5 1.2-1.2 1.2zM241.8 208.9h-1.3c-.7 0-1.2-.6-1.2-1.2 0-.7.6-1.2 1.2-1.2h1.3c.7 0 1.2.6 1.2 1.2.1.6-.5 1.2-1.2 1.2zM246.9 204.6h-1.3c-.7 0-1.2-.6-1.2-1.2 0-.7.6-1.2 1.2-1.2h1.3c.7 0 1.2.6 1.2 1.2 0 .7-.5 1.2-1.2 1.2zM236.7 204.6h-1.3c-.7 0-1.2-.6-1.2-1.2 0-.7.6-1.2 1.2-1.2h1.3c.7 0 1.2.6 1.2 1.2.1.7-.5 1.2-1.2 1.2zM241.8 204.6h-1.3c-.7 0-1.2-.6-1.2-1.2 0-.7.6-1.2 1.2-1.2h1.3c.7 0 1.2.6 1.2 1.2.1.7-.5 1.2-1.2 1.2zM246.9 200.4h-1.3c-.7 0-1.2-.6-1.2-1.2 0-.7.6-1.2 1.2-1.2h1.3c.7 0 1.2.6 1.2 1.2s-.5 1.2-1.2 1.2zM236.7 200.4h-1.3c-.7 0-1.2-.6-1.2-1.2 0-.7.6-1.2 1.2-1.2h1.3c.7 0 1.2.6 1.2 1.2.1.6-.5 1.2-1.2 1.2zM241.8 200.4h-1.3c-.7 0-1.2-.6-1.2-1.2 0-.7.6-1.2 1.2-1.2h1.3c.7 0 1.2.6 1.2 1.2.1.6-.5 1.2-1.2 1.2zM246.9 196.2h-1.3c-.7 0-1.2-.6-1.2-1.2 0-.7.6-1.2 1.2-1.2h1.3c.7 0 1.2.6 1.2 1.2s-.5 1.2-1.2 1.2zM236.7 196.2h-1.3c-.7 0-1.2-.6-1.2-1.2 0-.7.6-1.2 1.2-1.2h1.3c.7 0 1.2.6 1.2 1.2.1.6-.5 1.2-1.2 1.2zM241.8 196.2h-1.3c-.7 0-1.2-.6-1.2-1.2 0-.7.6-1.2 1.2-1.2h1.3c.7 0 1.2.6 1.2 1.2.1.6-.5 1.2-1.2 1.2zM246.9 191.9h-1.3c-.7 0-1.2-.6-1.2-1.2 0-.7.6-1.2 1.2-1.2h1.3c.7 0 1.2.6 1.2 1.2 0 .7-.5 1.2-1.2 1.2zM236.7 191.9h-1.3c-.7 0-1.2-.6-1.2-1.2 0-.7.6-1.2 1.2-1.2h1.3c.7 0 1.2.6 1.2 1.2.1.7-.5 1.2-1.2 1.2zM241.8 191.9h-1.3c-.7 0-1.2-.6-1.2-1.2 0-.7.6-1.2 1.2-1.2h1.3c.7 0 1.2.6 1.2 1.2.1.7-.5 1.2-1.2 1.2zM246.9 187.7h-1.3c-.7 0-1.2-.6-1.2-1.2 0-.7.6-1.2 1.2-1.2h1.3c.7 0 1.2.6 1.2 1.2s-.5 1.2-1.2 1.2zM236.7 187.7h-1.3c-.7 0-1.2-.6-1.2-1.2 0-.7.6-1.2 1.2-1.2h1.3c.7 0 1.2.6 1.2 1.2.1.6-.5 1.2-1.2 1.2zM241.8 187.7h-1.3c-.7 0-1.2-.6-1.2-1.2 0-.7.6-1.2 1.2-1.2h1.3c.7 0 1.2.6 1.2 1.2.1.6-.5 1.2-1.2 1.2zM246.9 183.5h-1.3c-.7 0-1.2-.6-1.2-1.2 0-.7.6-1.2 1.2-1.2h1.3c.7 0 1.2.6 1.2 1.2s-.5 1.2-1.2 1.2zM236.7 183.5h-1.3c-.7 0-1.2-.6-1.2-1.2 0-.7.6-1.2 1.2-1.2h1.3c.7 0 1.2.6 1.2 1.2.1.6-.5 1.2-1.2 1.2zM241.8 183.5h-1.3c-.7 0-1.2-.6-1.2-1.2 0-.7.6-1.2 1.2-1.2h1.3c.7 0 1.2.6 1.2 1.2.1.6-.5 1.2-1.2 1.2zM252 252h-1.4c-.7 0-1.2-.6-1.2-1.2 0-.7.6-1.2 1.2-1.2h1.3c.7 0 1.2.6 1.2 1.2.1.7-.4 1.2-1.1 1.2zM252 247.8h-1.4c-.7 0-1.2-.6-1.2-1.2 0-.7.6-1.2 1.2-1.2h1.3c.7 0 1.2.6 1.2 1.2.1.6-.4 1.2-1.1 1.2zM231.7 252h-1.3c-.7 0-1.2-.6-1.2-1.2 0-.7.6-1.2 1.2-1.2h1.3c.7 0 1.2.6 1.2 1.2 0 .7-.6 1.2-1.2 1.2zM231.7 247.8h-1.3c-.7 0-1.2-.6-1.2-1.2 0-.7.6-1.2 1.2-1.2h1.3c.7 0 1.2.6 1.2 1.2s-.6 1.2-1.2 1.2zM267.2 252h-1.3c-.7 0-1.2-.6-1.2-1.2 0-.7.6-1.2 1.2-1.2h1.3c.7 0 1.2.6 1.2 1.2 0 .7-.5 1.2-1.2 1.2zM257.1 252h-1.3c-.7 0-1.2-.6-1.2-1.2 0-.7.6-1.2 1.2-1.2h1.3c.7 0 1.2.6 1.2 1.2 0 .7-.6 1.2-1.2 1.2zM262.1 252h-1.3c-.7 0-1.2-.6-1.2-1.2 0-.7.6-1.2 1.2-1.2h1.3c.7 0 1.2.6 1.2 1.2.1.7-.5 1.2-1.2 1.2zM267.2 247.8h-1.3c-.7 0-1.2-.6-1.2-1.2 0-.7.6-1.2 1.2-1.2h1.3c.7 0 1.2.6 1.2 1.2s-.5 1.2-1.2 1.2zM257.1 247.8h-1.3c-.7 0-1.2-.6-1.2-1.2 0-.7.6-1.2 1.2-1.2h1.3c.7 0 1.2.6 1.2 1.2s-.6 1.2-1.2 1.2zM262.1 247.8h-1.3c-.7 0-1.2-.6-1.2-1.2 0-.7.6-1.2 1.2-1.2h1.3c.7 0 1.2.6 1.2 1.2.1.6-.5 1.2-1.2 1.2zM267.2 243.6h-1.3c-.7 0-1.2-.6-1.2-1.2 0-.7.6-1.2 1.2-1.2h1.3c.7 0 1.2.6 1.2 1.2s-.5 1.2-1.2 1.2zM257.1 243.6h-1.3c-.7 0-1.2-.6-1.2-1.2 0-.7.6-1.2 1.2-1.2h1.3c.7 0 1.2.6 1.2 1.2s-.6 1.2-1.2 1.2zM262.1 243.6h-1.3c-.7 0-1.2-.6-1.2-1.2 0-.7.6-1.2 1.2-1.2h1.3c.7 0 1.2.6 1.2 1.2.1.6-.5 1.2-1.2 1.2zM267.2 239.3h-1.3c-.7 0-1.2-.6-1.2-1.2 0-.7.6-1.2 1.2-1.2h1.3c.7 0 1.2.6 1.2 1.2 0 .7-.5 1.2-1.2 1.2zM257.1 239.3h-1.3c-.7 0-1.2-.6-1.2-1.2 0-.7.6-1.2 1.2-1.2h1.3c.7 0 1.2.6 1.2 1.2 0 .7-.6 1.2-1.2 1.2zM262.1 239.3h-1.3c-.7 0-1.2-.6-1.2-1.2 0-.7.6-1.2 1.2-1.2h1.3c.7 0 1.2.6 1.2 1.2.1.7-.5 1.2-1.2 1.2zM267.2 235.1h-1.3c-.7 0-1.2-.6-1.2-1.2 0-.7.6-1.2 1.2-1.2h1.3c.7 0 1.2.6 1.2 1.2s-.5 1.2-1.2 1.2zM257.1 235.1h-1.3c-.7 0-1.2-.6-1.2-1.2 0-.7.6-1.2 1.2-1.2h1.3c.7 0 1.2.6 1.2 1.2s-.6 1.2-1.2 1.2zM262.1 235.1h-1.3c-.7 0-1.2-.6-1.2-1.2 0-.7.6-1.2 1.2-1.2h1.3c.7 0 1.2.6 1.2 1.2.1.6-.5 1.2-1.2 1.2zM267.2 230.9h-1.3c-.7 0-1.2-.6-1.2-1.2 0-.7.6-1.2 1.2-1.2h1.3c.7 0 1.2.6 1.2 1.2s-.5 1.2-1.2 1.2zM257.1 230.9h-1.3c-.7 0-1.2-.6-1.2-1.2 0-.7.6-1.2 1.2-1.2h1.3c.7 0 1.2.6 1.2 1.2s-.6 1.2-1.2 1.2zM262.1 230.9h-1.3c-.7 0-1.2-.6-1.2-1.2 0-.7.6-1.2 1.2-1.2h1.3c.7 0 1.2.6 1.2 1.2.1.6-.5 1.2-1.2 1.2zM267.2 226.6h-1.3c-.7 0-1.2-.6-1.2-1.2 0-.7.6-1.2 1.2-1.2h1.3c.7 0 1.2.6 1.2 1.2 0 .7-.5 1.2-1.2 1.2zM257.1 226.6h-1.3c-.7 0-1.2-.6-1.2-1.2 0-.7.6-1.2 1.2-1.2h1.3c.7 0 1.2.6 1.2 1.2 0 .7-.6 1.2-1.2 1.2zM262.1 226.6h-1.3c-.7 0-1.2-.6-1.2-1.2 0-.7.6-1.2 1.2-1.2h1.3c.7 0 1.2.6 1.2 1.2.1.7-.5 1.2-1.2 1.2zM267.2 222.4h-1.3c-.7 0-1.2-.6-1.2-1.2 0-.7.6-1.2 1.2-1.2h1.3c.7 0 1.2.6 1.2 1.2s-.5 1.2-1.2 1.2zM257.1 222.4h-1.3c-.7 0-1.2-.6-1.2-1.2 0-.7.6-1.2 1.2-1.2h1.3c.7 0 1.2.6 1.2 1.2s-.6 1.2-1.2 1.2zM262.1 222.4h-1.3c-.7 0-1.2-.6-1.2-1.2 0-.7.6-1.2 1.2-1.2h1.3c.7 0 1.2.6 1.2 1.2.1.6-.5 1.2-1.2 1.2zM267.2 218.2h-1.3c-.7 0-1.2-.6-1.2-1.2 0-.7.6-1.2 1.2-1.2h1.3c.7 0 1.2.6 1.2 1.2s-.5 1.2-1.2 1.2zM257.1 218.2h-1.3c-.7 0-1.2-.6-1.2-1.2 0-.7.6-1.2 1.2-1.2h1.3c.7 0 1.2.6 1.2 1.2s-.6 1.2-1.2 1.2zM262.1 218.2h-1.3c-.7 0-1.2-.6-1.2-1.2 0-.7.6-1.2 1.2-1.2h1.3c.7 0 1.2.6 1.2 1.2.1.6-.5 1.2-1.2 1.2zM267.2 213.9h-1.3c-.7 0-1.2-.6-1.2-1.2 0-.7.6-1.2 1.2-1.2h1.3c.7 0 1.2.6 1.2 1.2 0 .7-.5 1.2-1.2 1.2zM257.1 213.9h-1.3c-.7 0-1.2-.6-1.2-1.2 0-.7.6-1.2 1.2-1.2h1.3c.7 0 1.2.6 1.2 1.2 0 .7-.6 1.2-1.2 1.2zM262.1 213.9h-1.3c-.7 0-1.2-.6-1.2-1.2 0-.7.6-1.2 1.2-1.2h1.3c.7 0 1.2.6 1.2 1.2.1.7-.5 1.2-1.2 1.2zM226.6 252h-1.3c-.7 0-1.2-.6-1.2-1.2 0-.7.6-1.2 1.2-1.2h1.3c.7 0 1.2.6 1.2 1.2 0 .7-.5 1.2-1.2 1.2zM216.4 252h-1.3c-.7 0-1.2-.6-1.2-1.2 0-.7.6-1.2 1.2-1.2h1.3c.7 0 1.2.6 1.2 1.2.1.7-.5 1.2-1.2 1.2zM221.5 252h-1.3c-.7 0-1.2-.6-1.2-1.2 0-.7.6-1.2 1.2-1.2h1.3c.7 0 1.2.6 1.2 1.2 0 .7-.5 1.2-1.2 1.2zM226.6 247.8h-1.3c-.7 0-1.2-.6-1.2-1.2 0-.7.6-1.2 1.2-1.2h1.3c.7 0 1.2.6 1.2 1.2s-.5 1.2-1.2 1.2zM216.4 247.8h-1.3c-.7 0-1.2-.6-1.2-1.2 0-.7.6-1.2 1.2-1.2h1.3c.7 0 1.2.6 1.2 1.2.1.6-.5 1.2-1.2 1.2zM221.5 247.8h-1.3c-.7 0-1.2-.6-1.2-1.2 0-.7.6-1.2 1.2-1.2h1.3c.7 0 1.2.6 1.2 1.2s-.5 1.2-1.2 1.2zM226.6 243.6h-1.3c-.7 0-1.2-.6-1.2-1.2 0-.7.6-1.2 1.2-1.2h1.3c.7 0 1.2.6 1.2 1.2s-.5 1.2-1.2 1.2zM216.4 243.6h-1.3c-.7 0-1.2-.6-1.2-1.2 0-.7.6-1.2 1.2-1.2h1.3c.7 0 1.2.6 1.2 1.2.1.6-.5 1.2-1.2 1.2zM221.5 243.6h-1.3c-.7 0-1.2-.6-1.2-1.2 0-.7.6-1.2 1.2-1.2h1.3c.7 0 1.2.6 1.2 1.2s-.5 1.2-1.2 1.2zM226.6 239.3h-1.3c-.7 0-1.2-.6-1.2-1.2 0-.7.6-1.2 1.2-1.2h1.3c.7 0 1.2.6 1.2 1.2 0 .7-.5 1.2-1.2 1.2zM216.4 239.3h-1.3c-.7 0-1.2-.6-1.2-1.2 0-.7.6-1.2 1.2-1.2h1.3c.7 0 1.2.6 1.2 1.2.1.7-.5 1.2-1.2 1.2zM221.5 239.3h-1.3c-.7 0-1.2-.6-1.2-1.2 0-.7.6-1.2 1.2-1.2h1.3c.7 0 1.2.6 1.2 1.2 0 .7-.5 1.2-1.2 1.2zM226.6 235.1h-1.3c-.7 0-1.2-.6-1.2-1.2 0-.7.6-1.2 1.2-1.2h1.3c.7 0 1.2.6 1.2 1.2s-.5 1.2-1.2 1.2zM216.4 235.1h-1.3c-.7 0-1.2-.6-1.2-1.2 0-.7.6-1.2 1.2-1.2h1.3c.7 0 1.2.6 1.2 1.2.1.6-.5 1.2-1.2 1.2zM221.5 235.1h-1.3c-.7 0-1.2-.6-1.2-1.2 0-.7.6-1.2 1.2-1.2h1.3c.7 0 1.2.6 1.2 1.2s-.5 1.2-1.2 1.2zM226.6 230.9h-1.3c-.7 0-1.2-.6-1.2-1.2 0-.7.6-1.2 1.2-1.2h1.3c.7 0 1.2.6 1.2 1.2s-.5 1.2-1.2 1.2zM216.4 230.9h-1.3c-.7 0-1.2-.6-1.2-1.2 0-.7.6-1.2 1.2-1.2h1.3c.7 0 1.2.6 1.2 1.2.1.6-.5 1.2-1.2 1.2zM221.5 230.9h-1.3c-.7 0-1.2-.6-1.2-1.2 0-.7.6-1.2 1.2-1.2h1.3c.7 0 1.2.6 1.2 1.2s-.5 1.2-1.2 1.2zM226.6 226.6h-1.3c-.7 0-1.2-.6-1.2-1.2 0-.7.6-1.2 1.2-1.2h1.3c.7 0 1.2.6 1.2 1.2 0 .7-.5 1.2-1.2 1.2zM216.4 226.6h-1.3c-.7 0-1.2-.6-1.2-1.2 0-.7.6-1.2 1.2-1.2h1.3c.7 0 1.2.6 1.2 1.2.1.7-.5 1.2-1.2 1.2zM221.5 226.6h-1.3c-.7 0-1.2-.6-1.2-1.2 0-.7.6-1.2 1.2-1.2h1.3c.7 0 1.2.6 1.2 1.2 0 .7-.5 1.2-1.2 1.2zM226.6 222.4h-1.3c-.7 0-1.2-.6-1.2-1.2 0-.7.6-1.2 1.2-1.2h1.3c.7 0 1.2.6 1.2 1.2s-.5 1.2-1.2 1.2zM216.4 222.4h-1.3c-.7 0-1.2-.6-1.2-1.2 0-.7.6-1.2 1.2-1.2h1.3c.7 0 1.2.6 1.2 1.2.1.6-.5 1.2-1.2 1.2zM221.5 222.4h-1.3c-.7 0-1.2-.6-1.2-1.2 0-.7.6-1.2 1.2-1.2h1.3c.7 0 1.2.6 1.2 1.2s-.5 1.2-1.2 1.2zM226.6 218.2h-1.3c-.7 0-1.2-.6-1.2-1.2 0-.7.6-1.2 1.2-1.2h1.3c.7 0 1.2.6 1.2 1.2s-.5 1.2-1.2 1.2zM216.4 218.2h-1.3c-.7 0-1.2-.6-1.2-1.2 0-.7.6-1.2 1.2-1.2h1.3c.7 0 1.2.6 1.2 1.2.1.6-.5 1.2-1.2 1.2zM221.5 218.2h-1.3c-.7 0-1.2-.6-1.2-1.2 0-.7.6-1.2 1.2-1.2h1.3c.7 0 1.2.6 1.2 1.2s-.5 1.2-1.2 1.2zM226.6 213.9h-1.3c-.7 0-1.2-.6-1.2-1.2 0-.7.6-1.2 1.2-1.2h1.3c.7 0 1.2.6 1.2 1.2 0 .7-.5 1.2-1.2 1.2zM216.4 213.9h-1.3c-.7 0-1.2-.6-1.2-1.2 0-.7.6-1.2 1.2-1.2h1.3c.7 0 1.2.6 1.2 1.2.1.7-.5 1.2-1.2 1.2zM221.5 213.9h-1.3c-.7 0-1.2-.6-1.2-1.2 0-.7.6-1.2 1.2-1.2h1.3c.7 0 1.2.6 1.2 1.2 0 .7-.5 1.2-1.2 1.2zM246.9 179.2h-1.3c-.7 0-1.2-.6-1.2-1.2 0-.7.6-1.2 1.2-1.2h1.3c.7 0 1.2.6 1.2 1.2 0 .7-.5 1.2-1.2 1.2zM236.7 179.2h-1.3c-.7 0-1.2-.6-1.2-1.2 0-.7.6-1.2 1.2-1.2h1.3c.7 0 1.2.6 1.2 1.2.1.7-.5 1.2-1.2 1.2zM241.8 179.2h-1.3c-.7 0-1.2-.6-1.2-1.2 0-.7.6-1.2 1.2-1.2h1.3c.7 0 1.2.6 1.2 1.2.1.7-.5 1.2-1.2 1.2zM246.9 175h-1.3c-.7 0-1.2-.6-1.2-1.2 0-.7.6-1.2 1.2-1.2h1.3c.7 0 1.2.6 1.2 1.2 0 .7-.5 1.2-1.2 1.2zM236.7 175h-1.3c-.7 0-1.2-.6-1.2-1.2 0-.7.6-1.2 1.2-1.2h1.3c.7 0 1.2.6 1.2 1.2.1.7-.5 1.2-1.2 1.2zM241.8 175h-1.3c-.7 0-1.2-.6-1.2-1.2 0-.7.6-1.2 1.2-1.2h1.3c.7 0 1.2.6 1.2 1.2.1.7-.5 1.2-1.2 1.2zM246.9 170.8h-1.3c-.7 0-1.2-.6-1.2-1.2 0-.7.6-1.2 1.2-1.2h1.3c.7 0 1.2.6 1.2 1.2s-.5 1.2-1.2 1.2zM236.7 170.8h-1.3c-.7 0-1.2-.6-1.2-1.2 0-.7.6-1.2 1.2-1.2h1.3c.7 0 1.2.6 1.2 1.2.1.6-.5 1.2-1.2 1.2zM241.8 170.8h-1.3c-.7 0-1.2-.6-1.2-1.2 0-.7.6-1.2 1.2-1.2h1.3c.7 0 1.2.6 1.2 1.2.1.6-.5 1.2-1.2 1.2zM246.9 164h-1.3c-.7 0-1.2-.6-1.2-1.2 0-.7.6-1.2 1.2-1.2h1.3c.7 0 1.2.6 1.2 1.2 0 .7-.5 1.2-1.2 1.2zM231.7 164h-1.3c-.7 0-1.2-.6-1.2-1.2 0-.7.6-1.2 1.2-1.2h1.3c.7 0 1.2.6 1.2 1.2 0 .7-.6 1.2-1.2 1.2zM236.7 164h-1.3c-.7 0-1.2-.6-1.2-1.2 0-.7.6-1.2 1.2-1.2h1.3c.7 0 1.2.6 1.2 1.2.1.7-.5 1.2-1.2 1.2zM241.8 164h-1.3c-.7 0-1.2-.6-1.2-1.2 0-.7.6-1.2 1.2-1.2h1.3c.7 0 1.2.6 1.2 1.2.1.7-.5 1.2-1.2 1.2zM252 159.8h-1.4c-.7 0-1.2-.6-1.2-1.2 0-.7.6-1.2 1.2-1.2h1.3c.7 0 1.2.6 1.2 1.2.1.6-.4 1.2-1.1 1.2zM246.9 159.8h-1.3c-.7 0-1.2-.6-1.2-1.2 0-.7.6-1.2 1.2-1.2h1.3c.7 0 1.2.6 1.2 1.2s-.5 1.2-1.2 1.2zM231.7 159.8h-1.3c-.7 0-1.2-.6-1.2-1.2 0-.7.6-1.2 1.2-1.2h1.3c.7 0 1.2.6 1.2 1.2s-.6 1.2-1.2 1.2zM236.7 159.8h-1.3c-.7 0-1.2-.6-1.2-1.2 0-.7.6-1.2 1.2-1.2h1.3c.7 0 1.2.6 1.2 1.2.1.6-.5 1.2-1.2 1.2zM241.8 159.8h-1.3c-.7 0-1.2-.6-1.2-1.2 0-.7.6-1.2 1.2-1.2h1.3c.7 0 1.2.6 1.2 1.2.1.6-.5 1.2-1.2 1.2zM252 155.5h-1.4c-.7 0-1.2-.6-1.2-1.2 0-.7.6-1.2 1.2-1.2h1.3c.7 0 1.2.6 1.2 1.2.1.7-.4 1.2-1.1 1.2zM246.9 155.5h-1.3c-.7 0-1.2-.6-1.2-1.2 0-.7.6-1.2 1.2-1.2h1.3c.7 0 1.2.6 1.2 1.2 0 .7-.5 1.2-1.2 1.2zM231.7 155.5h-1.3c-.7 0-1.2-.6-1.2-1.2 0-.7.6-1.2 1.2-1.2h1.3c.7 0 1.2.6 1.2 1.2 0 .7-.6 1.2-1.2 1.2zM236.7 155.5h-1.3c-.7 0-1.2-.6-1.2-1.2 0-.7.6-1.2 1.2-1.2h1.3c.7 0 1.2.6 1.2 1.2.1.7-.5 1.2-1.2 1.2zM241.8 155.5h-1.3c-.7 0-1.2-.6-1.2-1.2 0-.7.6-1.2 1.2-1.2h1.3c.7 0 1.2.6 1.2 1.2.1.7-.5 1.2-1.2 1.2zM252 151.3h-1.4c-.7 0-1.2-.6-1.2-1.2 0-.7.6-1.2 1.2-1.2h1.3c.7 0 1.2.6 1.2 1.2.1.7-.4 1.2-1.1 1.2zM246.9 151.3h-1.3c-.7 0-1.2-.6-1.2-1.2 0-.7.6-1.2 1.2-1.2h1.3c.7 0 1.2.6 1.2 1.2 0 .7-.5 1.2-1.2 1.2zM231.7 151.3h-1.3c-.7 0-1.2-.6-1.2-1.2 0-.7.6-1.2 1.2-1.2h1.3c.7 0 1.2.6 1.2 1.2 0 .7-.6 1.2-1.2 1.2zM236.7 151.3h-1.3c-.7 0-1.2-.6-1.2-1.2 0-.7.6-1.2 1.2-1.2h1.3c.7 0 1.2.6 1.2 1.2.1.7-.5 1.2-1.2 1.2zM241.8 151.3h-1.3c-.7 0-1.2-.6-1.2-1.2 0-.7.6-1.2 1.2-1.2h1.3c.7 0 1.2.6 1.2 1.2.1.7-.5 1.2-1.2 1.2zM252 147.1h-1.4c-.7 0-1.2-.6-1.2-1.2 0-.7.6-1.2 1.2-1.2h1.3c.7 0 1.2.6 1.2 1.2.1.6-.4 1.2-1.1 1.2zM246.9 147.1h-1.3c-.7 0-1.2-.6-1.2-1.2 0-.7.6-1.2 1.2-1.2h1.3c.7 0 1.2.6 1.2 1.2s-.5 1.2-1.2 1.2zM231.7 147.1h-1.3c-.7 0-1.2-.6-1.2-1.2 0-.7.6-1.2 1.2-1.2h1.3c.7 0 1.2.6 1.2 1.2s-.6 1.2-1.2 1.2zM236.7 147.1h-1.3c-.7 0-1.2-.6-1.2-1.2 0-.7.6-1.2 1.2-1.2h1.3c.7 0 1.2.6 1.2 1.2.1.6-.5 1.2-1.2 1.2zM241.8 147.1h-1.3c-.7 0-1.2-.6-1.2-1.2 0-.7.6-1.2 1.2-1.2h1.3c.7 0 1.2.6 1.2 1.2.1.6-.5 1.2-1.2 1.2zM252 142.8h-1.4c-.7 0-1.2-.6-1.2-1.2 0-.7.6-1.2 1.2-1.2h1.3c.7 0 1.2.6 1.2 1.2.1.7-.4 1.2-1.1 1.2zM246.9 142.8h-1.3c-.7 0-1.2-.6-1.2-1.2 0-.7.6-1.2 1.2-1.2h1.3c.7 0 1.2.6 1.2 1.2 0 .7-.5 1.2-1.2 1.2zM231.7 142.8h-1.3c-.7 0-1.2-.6-1.2-1.2 0-.7.6-1.2 1.2-1.2h1.3c.7 0 1.2.6 1.2 1.2 0 .7-.6 1.2-1.2 1.2zM236.7 142.8h-1.3c-.7 0-1.2-.6-1.2-1.2 0-.7.6-1.2 1.2-1.2h1.3c.7 0 1.2.6 1.2 1.2.1.7-.5 1.2-1.2 1.2zM241.8 142.8h-1.3c-.7 0-1.2-.6-1.2-1.2 0-.7.6-1.2 1.2-1.2h1.3c.7 0 1.2.6 1.2 1.2.1.7-.5 1.2-1.2 1.2zM252 138.6h-1.4c-.7 0-1.2-.6-1.2-1.2 0-.7.6-1.2 1.2-1.2h1.3c.7 0 1.2.6 1.2 1.2.1.7-.4 1.2-1.1 1.2zM246.9 138.6h-1.3c-.7 0-1.2-.6-1.2-1.2 0-.7.6-1.2 1.2-1.2h1.3c.7 0 1.2.6 1.2 1.2 0 .7-.5 1.2-1.2 1.2zM231.7 138.6h-1.3c-.7 0-1.2-.6-1.2-1.2 0-.7.6-1.2 1.2-1.2h1.3c.7 0 1.2.6 1.2 1.2 0 .7-.6 1.2-1.2 1.2zM236.7 138.6h-1.3c-.7 0-1.2-.6-1.2-1.2 0-.7.6-1.2 1.2-1.2h1.3c.7 0 1.2.6 1.2 1.2.1.7-.5 1.2-1.2 1.2zM241.8 138.6h-1.3c-.7 0-1.2-.6-1.2-1.2 0-.7.6-1.2 1.2-1.2h1.3c.7 0 1.2.6 1.2 1.2.1.7-.5 1.2-1.2 1.2zM252 134.4h-1.4c-.7 0-1.2-.6-1.2-1.2 0-.7.6-1.2 1.2-1.2h1.3c.7 0 1.2.6 1.2 1.2.1.6-.4 1.2-1.1 1.2zM246.9 134.4h-1.3c-.7 0-1.2-.6-1.2-1.2 0-.7.6-1.2 1.2-1.2h1.3c.7 0 1.2.6 1.2 1.2s-.5 1.2-1.2 1.2zM231.7 134.4h-1.3c-.7 0-1.2-.6-1.2-1.2 0-.7.6-1.2 1.2-1.2h1.3c.7 0 1.2.6 1.2 1.2s-.6 1.2-1.2 1.2zM236.7 134.4h-1.3c-.7 0-1.2-.6-1.2-1.2 0-.7.6-1.2 1.2-1.2h1.3c.7 0 1.2.6 1.2 1.2.1.6-.5 1.2-1.2 1.2zM241.8 134.4h-1.3c-.7 0-1.2-.6-1.2-1.2 0-.7.6-1.2 1.2-1.2h1.3c.7 0 1.2.6 1.2 1.2.1.6-.5 1.2-1.2 1.2zM252 130.2h-1.4c-.7 0-1.2-.6-1.2-1.2 0-.7.6-1.2 1.2-1.2h1.3c.7 0 1.2.6 1.2 1.2.1.6-.4 1.2-1.1 1.2zM246.9 130.2h-1.3c-.7 0-1.2-.6-1.2-1.2 0-.7.6-1.2 1.2-1.2h1.3c.7 0 1.2.6 1.2 1.2s-.5 1.2-1.2 1.2zM231.7 130.2h-1.3c-.7 0-1.2-.6-1.2-1.2 0-.7.6-1.2 1.2-1.2h1.3c.7 0 1.2.6 1.2 1.2s-.6 1.2-1.2 1.2zM236.7 130.2h-1.3c-.7 0-1.2-.6-1.2-1.2 0-.7.6-1.2 1.2-1.2h1.3c.7 0 1.2.6 1.2 1.2.1.6-.5 1.2-1.2 1.2zM241.8 130.2h-1.3c-.7 0-1.2-.6-1.2-1.2 0-.7.6-1.2 1.2-1.2h1.3c.7 0 1.2.6 1.2 1.2.1.6-.5 1.2-1.2 1.2zM252 125.9h-1.4c-.7 0-1.2-.6-1.2-1.2 0-.7.6-1.2 1.2-1.2h1.3c.7 0 1.2.6 1.2 1.2.1.7-.4 1.2-1.1 1.2zM246.9 125.9h-1.3c-.7 0-1.2-.6-1.2-1.2 0-.7.6-1.2 1.2-1.2h1.3c.7 0 1.2.6 1.2 1.2 0 .7-.5 1.2-1.2 1.2zM231.7 125.9h-1.3c-.7 0-1.2-.6-1.2-1.2 0-.7.6-1.2 1.2-1.2h1.3c.7 0 1.2.6 1.2 1.2 0 .7-.6 1.2-1.2 1.2zM236.7 125.9h-1.3c-.7 0-1.2-.6-1.2-1.2 0-.7.6-1.2 1.2-1.2h1.3c.7 0 1.2.6 1.2 1.2.1.7-.5 1.2-1.2 1.2zM241.8 125.9h-1.3c-.7 0-1.2-.6-1.2-1.2 0-.7.6-1.2 1.2-1.2h1.3c.7 0 1.2.6 1.2 1.2.1.7-.5 1.2-1.2 1.2zM252 121.7h-1.4c-.7 0-1.2-.6-1.2-1.2 0-.7.6-1.2 1.2-1.2h1.3c.7 0 1.2.6 1.2 1.2.1.6-.4 1.2-1.1 1.2zM246.9 121.7h-1.3c-.7 0-1.2-.6-1.2-1.2 0-.7.6-1.2 1.2-1.2h1.3c.7 0 1.2.6 1.2 1.2s-.5 1.2-1.2 1.2zM231.7 121.7h-1.3c-.7 0-1.2-.6-1.2-1.2 0-.7.6-1.2 1.2-1.2h1.3c.7 0 1.2.6 1.2 1.2s-.6 1.2-1.2 1.2zM236.7 121.7h-1.3c-.7 0-1.2-.6-1.2-1.2 0-.7.6-1.2 1.2-1.2h1.3c.7 0 1.2.6 1.2 1.2.1.6-.5 1.2-1.2 1.2zM241.8 121.7h-1.3c-.7 0-1.2-.6-1.2-1.2 0-.7.6-1.2 1.2-1.2h1.3c.7 0 1.2.6 1.2 1.2.1.6-.5 1.2-1.2 1.2zM252 117.5h-1.4c-.7 0-1.2-.6-1.2-1.2 0-.7.6-1.2 1.2-1.2h1.3c.7 0 1.2.6 1.2 1.2.1.6-.4 1.2-1.1 1.2zM246.9 117.5h-1.3c-.7 0-1.2-.6-1.2-1.2 0-.7.6-1.2 1.2-1.2h1.3c.7 0 1.2.6 1.2 1.2s-.5 1.2-1.2 1.2zM231.7 117.5h-1.3c-.7 0-1.2-.6-1.2-1.2 0-.7.6-1.2 1.2-1.2h1.3c.7 0 1.2.6 1.2 1.2s-.6 1.2-1.2 1.2zM236.7 117.5h-1.3c-.7 0-1.2-.6-1.2-1.2 0-.7.6-1.2 1.2-1.2h1.3c.7 0 1.2.6 1.2 1.2.1.6-.5 1.2-1.2 1.2zM241.8 117.5h-1.3c-.7 0-1.2-.6-1.2-1.2 0-.7.6-1.2 1.2-1.2h1.3c.7 0 1.2.6 1.2 1.2.1.6-.5 1.2-1.2 1.2zM252 113.2h-1.4c-.7 0-1.2-.6-1.2-1.2 0-.7.6-1.2 1.2-1.2h1.3c.7 0 1.2.6 1.2 1.2.1.7-.4 1.2-1.1 1.2zM246.9 113.2h-1.3c-.7 0-1.2-.6-1.2-1.2 0-.7.6-1.2 1.2-1.2h1.3c.7 0 1.2.6 1.2 1.2 0 .7-.5 1.2-1.2 1.2zM231.7 113.2h-1.3c-.7 0-1.2-.6-1.2-1.2 0-.7.6-1.2 1.2-1.2h1.3c.7 0 1.2.6 1.2 1.2 0 .7-.6 1.2-1.2 1.2zM236.7 113.2h-1.3c-.7 0-1.2-.6-1.2-1.2 0-.7.6-1.2 1.2-1.2h1.3c.7 0 1.2.6 1.2 1.2.1.7-.5 1.2-1.2 1.2zM241.8 113.2h-1.3c-.7 0-1.2-.6-1.2-1.2 0-.7.6-1.2 1.2-1.2h1.3c.7 0 1.2.6 1.2 1.2.1.7-.5 1.2-1.2 1.2zM252 109h-1.4c-.7 0-1.2-.6-1.2-1.2 0-.7.6-1.2 1.2-1.2h1.3c.7 0 1.2.6 1.2 1.2.1.6-.4 1.2-1.1 1.2zM246.9 109h-1.3c-.7 0-1.2-.6-1.2-1.2 0-.7.6-1.2 1.2-1.2h1.3c.7 0 1.2.6 1.2 1.2s-.5 1.2-1.2 1.2zM231.7 109h-1.3c-.7 0-1.2-.6-1.2-1.2 0-.7.6-1.2 1.2-1.2h1.3c.7 0 1.2.6 1.2 1.2s-.6 1.2-1.2 1.2zM236.7 109h-1.3c-.7 0-1.2-.6-1.2-1.2 0-.7.6-1.2 1.2-1.2h1.3c.7 0 1.2.6 1.2 1.2.1.6-.5 1.2-1.2 1.2zM241.8 109h-1.3c-.7 0-1.2-.6-1.2-1.2 0-.7.6-1.2 1.2-1.2h1.3c.7 0 1.2.6 1.2 1.2.1.6-.5 1.2-1.2 1.2zM252 104.8h-1.4c-.7 0-1.2-.6-1.2-1.2 0-.7.6-1.2 1.2-1.2h1.3c.7 0 1.2.6 1.2 1.2.1.6-.4 1.2-1.1 1.2zM246.9 104.8h-1.3c-.7 0-1.2-.6-1.2-1.2 0-.7.6-1.2 1.2-1.2h1.3c.7 0 1.2.6 1.2 1.2s-.5 1.2-1.2 1.2zM231.7 104.8h-1.3c-.7 0-1.2-.6-1.2-1.2 0-.7.6-1.2 1.2-1.2h1.3c.7 0 1.2.6 1.2 1.2s-.6 1.2-1.2 1.2zM236.7 104.8h-1.3c-.7 0-1.2-.6-1.2-1.2 0-.7.6-1.2 1.2-1.2h1.3c.7 0 1.2.6 1.2 1.2.1.6-.5 1.2-1.2 1.2zM241.8 104.8h-1.3c-.7 0-1.2-.6-1.2-1.2 0-.7.6-1.2 1.2-1.2h1.3c.7 0 1.2.6 1.2 1.2.1.6-.5 1.2-1.2 1.2zM252 100.5h-1.4c-.7 0-1.2-.6-1.2-1.2 0-.7.6-1.2 1.2-1.2h1.3c.7 0 1.2.6 1.2 1.2.1.7-.4 1.2-1.1 1.2zM246.9 100.5h-1.3c-.7 0-1.2-.6-1.2-1.2 0-.7.6-1.2 1.2-1.2h1.3c.7 0 1.2.6 1.2 1.2 0 .7-.5 1.2-1.2 1.2zM231.7 100.5h-1.3c-.7 0-1.2-.6-1.2-1.2 0-.7.6-1.2 1.2-1.2h1.3c.7 0 1.2.6 1.2 1.2 0 .7-.6 1.2-1.2 1.2zM236.7 100.5h-1.3c-.7 0-1.2-.6-1.2-1.2 0-.7.6-1.2 1.2-1.2h1.3c.7 0 1.2.6 1.2 1.2.1.7-.5 1.2-1.2 1.2zM241.8 100.5h-1.3c-.7 0-1.2-.6-1.2-1.2 0-.7.6-1.2 1.2-1.2h1.3c.7 0 1.2.6 1.2 1.2.1.7-.5 1.2-1.2 1.2zM252 96.3h-1.4c-.7 0-1.2-.6-1.2-1.2 0-.7.6-1.2 1.2-1.2h1.3c.7 0 1.2.6 1.2 1.2.1.6-.4 1.2-1.1 1.2zM246.9 96.3h-1.3c-.7 0-1.2-.6-1.2-1.2 0-.7.6-1.2 1.2-1.2h1.3c.7 0 1.2.6 1.2 1.2s-.5 1.2-1.2 1.2zM231.7 96.3h-1.3c-.7 0-1.2-.6-1.2-1.2 0-.7.6-1.2 1.2-1.2h1.3c.7 0 1.2.6 1.2 1.2s-.6 1.2-1.2 1.2zM236.7 96.3h-1.3c-.7 0-1.2-.6-1.2-1.2 0-.7.6-1.2 1.2-1.2h1.3c.7 0 1.2.6 1.2 1.2.1.6-.5 1.2-1.2 1.2zM241.8 96.3h-1.3c-.7 0-1.2-.6-1.2-1.2 0-.7.6-1.2 1.2-1.2h1.3c.7 0 1.2.6 1.2 1.2.1.6-.5 1.2-1.2 1.2zM252 92.1h-1.4c-.7 0-1.2-.6-1.2-1.2 0-.7.6-1.2 1.2-1.2h1.3c.7 0 1.2.6 1.2 1.2.1.6-.4 1.2-1.1 1.2zM246.9 92.1h-1.3c-.7 0-1.2-.6-1.2-1.2 0-.7.6-1.2 1.2-1.2h1.3c.7 0 1.2.6 1.2 1.2s-.5 1.2-1.2 1.2zM231.7 92.1h-1.3c-.7 0-1.2-.6-1.2-1.2 0-.7.6-1.2 1.2-1.2h1.3c.7 0 1.2.6 1.2 1.2s-.6 1.2-1.2 1.2zM236.7 92.1h-1.3c-.7 0-1.2-.6-1.2-1.2 0-.7.6-1.2 1.2-1.2h1.3c.7 0 1.2.6 1.2 1.2.1.6-.5 1.2-1.2 1.2zM241.8 92.1h-1.3c-.7 0-1.2-.6-1.2-1.2 0-.7.6-1.2 1.2-1.2h1.3c.7 0 1.2.6 1.2 1.2.1.6-.5 1.2-1.2 1.2zM252 87.8h-1.4c-.7 0-1.2-.6-1.2-1.2 0-.7.6-1.2 1.2-1.2h1.3c.7 0 1.2.6 1.2 1.2.1.7-.4 1.2-1.1 1.2zM246.9 87.8h-1.3c-.7 0-1.2-.6-1.2-1.2 0-.7.6-1.2 1.2-1.2h1.3c.7 0 1.2.6 1.2 1.2 0 .7-.5 1.2-1.2 1.2zM231.7 87.8h-1.3c-.7 0-1.2-.6-1.2-1.2 0-.7.6-1.2 1.2-1.2h1.3c.7 0 1.2.6 1.2 1.2 0 .7-.6 1.2-1.2 1.2zM236.7 87.8h-1.3c-.7 0-1.2-.6-1.2-1.2 0-.7.6-1.2 1.2-1.2h1.3c.7 0 1.2.6 1.2 1.2.1.7-.5 1.2-1.2 1.2zM241.8 87.8h-1.3c-.7 0-1.2-.6-1.2-1.2 0-.7.6-1.2 1.2-1.2h1.3c.7 0 1.2.6 1.2 1.2.1.7-.5 1.2-1.2 1.2zM241.8 83.6h-1.3c-.7 0-1.2-.6-1.2-1.2 0-.7.6-1.2 1.2-1.2h1.3c.7 0 1.2.6 1.2 1.2.1.7-.5 1.2-1.2 1.2zM241.8 79.4h-1.3c-.7 0-1.2-.6-1.2-1.2 0-.7.6-1.2 1.2-1.2h1.3c.7 0 1.2.6 1.2 1.2.1.6-.5 1.2-1.2 1.2zM241.8 75.1h-1.3c-.7 0-1.2-.6-1.2-1.2 0-.7.6-1.2 1.2-1.2h1.3c.7 0 1.2.6 1.2 1.2.1.7-.5 1.2-1.2 1.2zM241.8 70.9h-1.3c-.7 0-1.2-.6-1.2-1.2 0-.7.6-1.2 1.2-1.2h1.3c.7 0 1.2.6 1.2 1.2.1.7-.5 1.2-1.2 1.2zM241.8 66.7h-1.3c-.7 0-1.2-.6-1.2-1.2 0-.7.6-1.2 1.2-1.2h1.3c.7 0 1.2.6 1.2 1.2.1.6-.5 1.2-1.2 1.2z" stroke="#CBDBF7" stroke-miterlimit="10" stroke-linecap="round" stroke-linejoin="round"/><path d="M255.9 156.6h29.3v58.3h38.3v4.2h-38.3v45.1h37l-.4-45.1M285.2 219.9v-5" stroke="#CBDBF7" stroke-width="3" stroke-miterlimit="10" stroke-linecap="round" stroke-linejoin="round"/><path d="M280.6 156.6v107.6M275.4 156.6v107.6M270.3 156.6v52.3M264.6 156.6v17.9M258.9 156.6v8.2M301.2 258c-.9 0-1.6-.7-1.6-1.6v-31.6c0-.9.7-1.6 1.6-1.6.9 0 1.6.7 1.6 1.6v31.7c-.1.8-.8 1.5-1.6 1.5zM318.4 251.6c-.9 0-1.6-.7-1.6-1.6v-2.4c0-.9.7-1.6 1.6-1.6.9 0 1.6.7 1.6 1.6v2.4c-.1.9-.8 1.6-1.6 1.6zM318.4 244c-.9 0-1.6-.7-1.6-1.6V240c0-.9.7-1.6 1.6-1.6.9 0 1.6.7 1.6 1.6v2.4c-.1.9-.8 1.6-1.6 1.6zM318.4 236.4c-.9 0-1.6-.7-1.6-1.6v-2.3c0-.9.7-1.6 1.6-1.6.9 0 1.6.7 1.6 1.6v2.4c-.1.8-.8 1.5-1.6 1.5zM318.4 228.8c-.9 0-1.6-.7-1.6-1.6v-2.4c0-.9.7-1.6 1.6-1.6.9 0 1.6.7 1.6 1.6v2.4c-.1.9-.8 1.6-1.6 1.6zM312.5 251.6c-.9 0-1.6-.7-1.6-1.6v-2.4c0-.9.7-1.6 1.6-1.6.9 0 1.6.7 1.6 1.6v2.4c-.1.9-.8 1.6-1.6 1.6zM306.5 251.6c-.9 0-1.6-.7-1.6-1.6v-2.4c0-.9.7-1.6 1.6-1.6.9 0 1.6.7 1.6 1.6v2.4c0 .9-.7 1.6-1.6 1.6zM312.5 244c-.9 0-1.6-.7-1.6-1.6V240c0-.9.7-1.6 1.6-1.6.9 0 1.6.7 1.6 1.6v2.4c-.1.9-.8 1.6-1.6 1.6zM306.5 244c-.9 0-1.6-.7-1.6-1.6V240c0-.9.7-1.6 1.6-1.6.9 0 1.6.7 1.6 1.6v2.4c0 .9-.7 1.6-1.6 1.6zM312.5 236.4c-.9 0-1.6-.7-1.6-1.6v-2.3c0-.9.7-1.6 1.6-1.6.9 0 1.6.7 1.6 1.6v2.4c-.1.8-.8 1.5-1.6 1.5zM306.5 236.4c-.9 0-1.6-.7-1.6-1.6v-2.3c0-.9.7-1.6 1.6-1.6.9 0 1.6.7 1.6 1.6v2.4c0 .8-.7 1.5-1.6 1.5zM312.5 228.8c-.9 0-1.6-.7-1.6-1.6v-2.4c0-.9.7-1.6 1.6-1.6.9 0 1.6.7 1.6 1.6v2.4c-.1.9-.8 1.6-1.6 1.6zM306.5 228.8c-.9 0-1.6-.7-1.6-1.6v-2.4c0-.9.7-1.6 1.6-1.6.9 0 1.6.7 1.6 1.6v2.4c0 .9-.7 1.6-1.6 1.6zM295.5 251.6c-.9 0-1.6-.7-1.6-1.6v-2.4c0-.9.7-1.6 1.6-1.6.9 0 1.6.7 1.6 1.6v2.4c0 .9-.7 1.6-1.6 1.6zM289.6 251.6c-.9 0-1.6-.7-1.6-1.6v-2.4c0-.9.7-1.6 1.6-1.6.9 0 1.6.7 1.6 1.6v2.4c0 .9-.7 1.6-1.6 1.6zM295.5 244c-.9 0-1.6-.7-1.6-1.6V240c0-.9.7-1.6 1.6-1.6.9 0 1.6.7 1.6 1.6v2.4c0 .9-.7 1.6-1.6 1.6zM289.6 244c-.9 0-1.6-.7-1.6-1.6V240c0-.9.7-1.6 1.6-1.6.9 0 1.6.7 1.6 1.6v2.4c0 .9-.7 1.6-1.6 1.6zM295.5 236.4c-.9 0-1.6-.7-1.6-1.6v-2.3c0-.9.7-1.6 1.6-1.6.9 0 1.6.7 1.6 1.6v2.4c0 .8-.7 1.5-1.6 1.5zM289.6 236.4c-.9 0-1.6-.7-1.6-1.6v-2.3c0-.9.7-1.6 1.6-1.6.9 0 1.6.7 1.6 1.6v2.4c0 .8-.7 1.5-1.6 1.5zM295.5 228.8c-.9 0-1.6-.7-1.6-1.6v-2.4c0-.9.7-1.6 1.6-1.6.9 0 1.6.7 1.6 1.6v2.4c0 .9-.7 1.6-1.6 1.6zM289.6 228.8c-.9 0-1.6-.7-1.6-1.6v-2.4c0-.9.7-1.6 1.6-1.6.9 0 1.6.7 1.6 1.6v2.4c0 .9-.7 1.6-1.6 1.6zM205.6 227.3c-.9 0-1.6-.7-1.6-1.6v-2.4c0-.9.7-1.6 1.6-1.6.9 0 1.6.7 1.6 1.6v2.4c0 .9-.7 1.6-1.6 1.6zM205.6 219.7c-.9 0-1.6-.7-1.6-1.6v-2.4c0-.9.7-1.6 1.6-1.6.9 0 1.6.7 1.6 1.6v2.4c0 .9-.7 1.6-1.6 1.6zM205.6 212.1c-.9 0-1.6-.7-1.6-1.6v-2.4c0-.9.7-1.6 1.6-1.6.9 0 1.6.7 1.6 1.6v2.4c0 .9-.7 1.6-1.6 1.6zM205.6 204.5c-.9 0-1.6-.7-1.6-1.6v-2.4c0-.9.7-1.6 1.6-1.6.9 0 1.6.7 1.6 1.6v2.4c0 .9-.7 1.6-1.6 1.6zM199.7 227.3c-.9 0-1.6-.7-1.6-1.6v-2.4c0-.9.7-1.6 1.6-1.6.9 0 1.6.7 1.6 1.6v2.4c0 .9-.7 1.6-1.6 1.6zM193.8 227.3c-.9 0-1.6-.7-1.6-1.6v-2.4c0-.9.7-1.6 1.6-1.6.9 0 1.6.7 1.6 1.6v2.4c-.1.9-.8 1.6-1.6 1.6zM199.7 219.7c-.9 0-1.6-.7-1.6-1.6v-2.4c0-.9.7-1.6 1.6-1.6.9 0 1.6.7 1.6 1.6v2.4c0 .9-.7 1.6-1.6 1.6zM193.8 219.7c-.9 0-1.6-.7-1.6-1.6v-2.4c0-.9.7-1.6 1.6-1.6.9 0 1.6.7 1.6 1.6v2.4c-.1.9-.8 1.6-1.6 1.6zM199.7 212.1c-.9 0-1.6-.7-1.6-1.6v-2.4c0-.9.7-1.6 1.6-1.6.9 0 1.6.7 1.6 1.6v2.4c0 .9-.7 1.6-1.6 1.6zM193.8 212.1c-.9 0-1.6-.7-1.6-1.6v-2.4c0-.9.7-1.6 1.6-1.6.9 0 1.6.7 1.6 1.6v2.4c-.1.9-.8 1.6-1.6 1.6zM199.7 204.5c-.9 0-1.6-.7-1.6-1.6v-2.4c0-.9.7-1.6 1.6-1.6.9 0 1.6.7 1.6 1.6v2.4c0 .9-.7 1.6-1.6 1.6zM193.8 204.5c-.9 0-1.6-.7-1.6-1.6v-2.4c0-.9.7-1.6 1.6-1.6.9 0 1.6.7 1.6 1.6v2.4c-.1.9-.8 1.6-1.6 1.6zM205.6 257.8c-.9 0-1.6-.7-1.6-1.6v-2.4c0-.9.7-1.6 1.6-1.6.9 0 1.6.7 1.6 1.6v2.4c0 .9-.7 1.6-1.6 1.6zM205.6 250.2c-.9 0-1.6-.7-1.6-1.6v-2.4c0-.9.7-1.6 1.6-1.6.9 0 1.6.7 1.6 1.6v2.4c0 .9-.7 1.6-1.6 1.6zM205.6 242.6c-.9 0-1.6-.7-1.6-1.6v-2.4c0-.9.7-1.6 1.6-1.6.9 0 1.6.7 1.6 1.6v2.4c0 .9-.7 1.6-1.6 1.6zM205.8 235.1c-.9 0-1.6-.7-1.6-1.6v-2.4c0-.9.7-1.6 1.6-1.6.9 0 1.6.7 1.6 1.6v2.4c-.1.9-.8 1.6-1.6 1.6zM199.7 257.8c-.9 0-1.6-.7-1.6-1.6v-2.4c0-.9.7-1.6 1.6-1.6.9 0 1.6.7 1.6 1.6v2.4c0 .9-.7 1.6-1.6 1.6zM193.8 257.8c-.9 0-1.6-.7-1.6-1.6v-2.4c0-.9.7-1.6 1.6-1.6.9 0 1.6.7 1.6 1.6v2.4c-.1.9-.8 1.6-1.6 1.6zM199.7 250.2c-.9 0-1.6-.7-1.6-1.6v-2.4c0-.9.7-1.6 1.6-1.6.9 0 1.6.7 1.6 1.6v2.4c0 .9-.7 1.6-1.6 1.6zM193.8 250.2c-.9 0-1.6-.7-1.6-1.6v-2.4c0-.9.7-1.6 1.6-1.6.9 0 1.6.7 1.6 1.6v2.4c-.1.9-.8 1.6-1.6 1.6zM199.7 242.6c-.9 0-1.6-.7-1.6-1.6v-2.4c0-.9.7-1.6 1.6-1.6.9 0 1.6.7 1.6 1.6v2.4c0 .9-.7 1.6-1.6 1.6zM193.8 242.6c-.9 0-1.6-.7-1.6-1.6v-2.4c0-.9.7-1.6 1.6-1.6.9 0 1.6.7 1.6 1.6v2.4c-.1.9-.8 1.6-1.6 1.6zM199.8 235.1c-.9 0-1.6-.7-1.6-1.6v-2.4c0-.9.7-1.6 1.6-1.6.9 0 1.6.7 1.6 1.6v2.4c0 .9-.7 1.6-1.6 1.6zM193.8 234.9c-.9 0-1.6-.7-1.6-1.6v-2.4c0-.9.7-1.6 1.6-1.6.9 0 1.6.7 1.6 1.6v2.4c-.1.9-.8 1.6-1.6 1.6z" stroke="#CBDBF7" stroke-miterlimit="10" stroke-linecap="round" stroke-linejoin="round"/><path d="M214.8 192.9h-28.5v3.3M187 197.1v4.2h-4.7v7.4h-32.5v2.8h1.7v52.7" stroke="#CBDBF7" stroke-width="3" stroke-miterlimit="10" stroke-linecap="round" stroke-linejoin="round"/><path d="M180.6 253.9c-1.1 0-2-.9-2-2v-38.5c0-1.1.9-2 2-2s2 .9 2 2v38.5c-.1 1.1-.9 2-2 2zM174.6 253.9c-1.1 0-2-.9-2-2v-38.5c0-1.1.9-2 2-2s2 .9 2 2v38.5c0 1.1-.9 2-2 2zM168.7 253.9c-1.1 0-2-.9-2-2v-38.5c0-1.1.9-2 2-2s2 .9 2 2v38.5c0 1.1-.9 2-2 2zM162.8 253.9c-1.1 0-2-.9-2-2v-38.5c0-1.1.9-2 2-2s2 .9 2 2v38.5c0 1.1-.9 2-2 2zM156.9 253.9c-1.1 0-2-.9-2-2v-38.5c0-1.1.9-2 2-2s2 .9 2 2v38.5c-.1 1.1-.9 2-2 2z" stroke="#CBDBF7" stroke-miterlimit="10" stroke-linecap="round" stroke-linejoin="round"/><path d="M34.5 264.8L55.1 96.9l10.3 1.2 2.9-23.9 43.2 5.3-3 24.8 10.4.4-19.7 160.1H34.5z" fill="#FCFCFE"/><path d="M73.6 123.9l2.1-17.3c.3-2.3-1.4-4.4-3.7-4.7-2.3-.3-4.4 1.4-4.7 3.7l-2.1 17.3" stroke="#CBDBF7" stroke-miterlimit="10" stroke-linecap="round" stroke-linejoin="round"/><path d="M34.6 264.8L55.2 96.9l10.3 1.2 2.9-23.9L90.7 77" stroke="#CBDBF7" stroke-width="3" stroke-miterlimit="10" stroke-linecap="round" stroke-linejoin="round"/><path d="M65.4 98.9l43.2 5.4M37.4 242.3l64.2 7.9M68.7 246.2l2.1-17.3c.3-2.3-1.4-4.4-3.7-4.7-2.3-.3-4.4 1.4-4.7 3.7l-2.1 17.3M48.9 243.8l2.1-17.3c.3-2.3-1.4-4.4-3.7-4.7-2.3-.3-4.4 1.4-4.7 3.7l-2.1 17.3M58.8 245l2.1-17.3c.3-2.3-1.4-4.4-3.7-4.7-2.3-.3-4.4 1.4-4.7 3.7L50.4 244M40.3 218.5l63.4 7.7M71.6 222.3l2.1-17.3c.3-2.3-1.4-4.4-3.7-4.7-2.3-.3-4.4 1.4-4.7 3.7l-2.1 17.3M51.8 219.9l2.1-17.3c.3-2.3-1.4-4.4-3.7-4.7-2.3-.3-4.4 1.4-4.7 3.7l-2.1 17.3M61.7 221.1l2.1-17.3c.3-2.3-1.4-4.4-3.7-4.7-2.3-.3-4.4 1.4-4.7 3.7l-2.1 17.3M43.2 194.6l63.4 7.8M74.5 198.4l2.1-17.3c.3-2.3-1.4-4.4-3.7-4.7-2.3-.3-4.4 1.4-4.7 3.7l-2.1 17.3M54.8 196l2.1-17.3c.3-2.3-1.4-4.4-3.7-4.7-2.3-.3-4.4 1.4-4.7 3.7L46.4 195M64.6 197.2l2.1-17.3c.3-2.3-1.4-4.4-3.7-4.7-2.3-.3-4.4 1.4-4.7 3.7l-2.1 17.3M46.3 169.9l63.4 7.8M77.6 173.7l2.1-17.3c.3-2.3-1.4-4.4-3.7-4.7-2.3-.3-4.4 1.4-4.7 3.7l-2.1 17.3M57.8 171.3l2.1-17.3c.3-2.3-1.4-4.4-3.7-4.7-2.3-.3-4.4 1.4-4.7 3.7l-2.1 17.3M67.7 172.5l2.1-17.3c.3-2.3-1.4-4.4-3.7-4.7-2.3-.3-4.4 1.4-4.7 3.7l-2.2 17.3M49.2 146l63.4 7.8M80.5 149.8l2.1-17.3c.3-2.3-1.4-4.4-3.7-4.7-2.3-.3-4.4 1.4-4.7 3.7l-2.1 17.3M60.7 147.4l2.1-17.3c.3-2.3-1.4-4.4-3.7-4.7-2.3-.3-4.4 1.4-4.7 3.7l-2.1 17.3M70.6 148.6l2.1-17.3c.3-2.3-1.4-4.4-3.7-4.7-2.3-.3-4.4 1.4-4.7 3.7l-2.1 17.3M52.2 121.3l63.4 7.8M83.5 125.1l2.1-17.3c.3-2.3-1.4-4.4-3.7-4.7-2.3-.3-4.4 1.4-4.7 3.7l-2.1 17.3M63.8 122.7l2.1-17.3c.3-2.3-1.4-4.4-3.7-4.7-2.3-.3-4.4 1.4-4.7 3.7l-2.1 17.3M73.6 123.9l2.1-17.3c.3-2.3-1.4-4.4-3.7-4.7-2.3-.3-4.4 1.4-4.7 3.7l-2.1 17.3M103.1 127.5l2.1-17.3c.3-2.3-1.4-4.4-3.7-4.7-2.3-.3-4.4 1.4-4.7 3.7l-2.2 17.3" stroke="#CBDBF7" stroke-miterlimit="10" stroke-linecap="round" stroke-linejoin="round"/><path d="M99.4 264.8L119 104.7l-10.3-1.3 3-23.9-21.4-2.6" stroke="#CBDBF7" stroke-width="3" stroke-miterlimit="10" stroke-linecap="round" stroke-linejoin="round"/><path d="M78.3 247.4l2.1-17.3c.3-2.3-1.4-4.4-3.7-4.7-2.3-.3-4.4 1.4-4.7 3.7l-2.1 17.3M98.1 249.8l2.1-17.3c.3-2.3-1.4-4.4-3.7-4.7-2.3-.3-4.4 1.4-4.7 3.7l-2.1 17.3M88.2 248.6l2.1-17.3c.3-2.3-1.4-4.4-3.7-4.7-2.3-.3-4.4 1.4-4.7 3.7l-2.1 17.2M81.3 223.5l2.1-17.3c.3-2.3-1.4-4.4-3.7-4.7-2.3-.3-4.4 1.4-4.7 3.7l-2.2 17.3M101 225.9l2.1-17.3c.3-2.3-1.4-4.4-3.7-4.7-2.3-.3-4.4 1.4-4.7 3.7l-2.1 17.3M91.1 224.7l2.1-17.3c.3-2.3-1.4-4.4-3.7-4.7-2.3-.3-4.4 1.4-4.7 3.7l-2.1 17.3M84.2 199.6l2.1-17.3c.3-2.3-1.4-4.4-3.7-4.7-2.3-.3-4.4 1.4-4.7 3.7l-2.1 17.3M104 202l2.1-17.3c.3-2.3-1.4-4.4-3.7-4.7-2.3-.3-4.4 1.4-4.7 3.7L95.6 201M94.1 200.8l2.1-17.3c.3-2.3-1.4-4.4-3.7-4.7-2.3-.3-4.4 1.4-4.7 3.7l-2.2 17.3M87.2 174.9l2.1-17.3c.3-2.3-1.4-4.4-3.7-4.7-2.3-.3-4.4 1.4-4.7 3.7l-2.1 17.3M107 177.3l2.1-17.3c.3-2.3-1.4-4.4-3.7-4.7-2.3-.3-4.4 1.4-4.7 3.7l-2.1 17.3M97.1 176.1l2.1-17.3c.3-2.3-1.4-4.4-3.7-4.7-2.3-.3-4.4 1.4-4.7 3.7l-2.1 17.3M90.2 151l2.1-17.3c.3-2.3-1.4-4.4-3.7-4.7-2.3-.3-4.4 1.4-4.7 3.7L81.8 150M109.9 153.5l2.1-17.3c.3-2.3-1.4-4.4-3.7-4.7-2.3-.3-4.4 1.4-4.7 3.7l-2.1 17.3M100 152.2l2.1-17.3c.3-2.3-1.4-4.4-3.7-4.7-2.3-.3-4.4 1.4-4.7 3.7l-2.1 17.3M93.2 126.3l2.1-17.3c.3-2.3-1.4-4.4-3.7-4.7-2.3-.3-4.4 1.4-4.7 3.7l-2.1 17.3M113 128.7l2.1-17.3c.3-2.3-1.4-4.4-3.7-4.7-2.3-.3-4.4 1.4-4.7 3.7l-2.1 17.3M103.1 127.5l2.1-17.3c.3-2.3-1.4-4.4-3.7-4.7-2.3-.3-4.4 1.4-4.7 3.7l-2.2 17.3" stroke="#CBDBF7" stroke-miterlimit="10" stroke-linecap="round" stroke-linejoin="round"/><path d="M82.1 101.1l2.2-17.3c.3-2.3-1.4-4.5-3.7-4.7-2.3-.3-4.5 1.4-4.7 3.7L73.6 100M91.7 102.3L93.9 85c.3-2.3-1.4-4.5-3.7-4.7-2.3-.3-4.5 1.4-4.7 3.7l-2.2 17.3M101.6 103.5l2.2-17.3c.3-2.3-1.4-4.5-3.7-4.7-2.3-.3-4.5 1.4-4.7 3.7l-2.2 17.3" stroke="#CBDBF7" stroke-miterlimit="10"/><path d="M1156.7 264.9v-13.4h6.9v-14.4l5.5 1.9v-8.9h3.6l-3.6-4.7 3.6-4.4h7.9l-3.4-11-5.2-8.4-2-3.4 20.7-1.4 14.1 3.5 3.1 1.3-5.8-17.4 11.6.9 12.5 3.3 7.7 3.9-1.4-6.3-2-10.2-4.3-8.4-2.4-5.3 8.5 1.7 12.5 4.2 11.2 5.7 9.4 6.6 9 8.3 6.6 8.2 5.5 8.4 1.6 3.6 13.5-7.2 13.6-3.7 11.9-1.1 8.6.4 5.8 1.6-.4 4.3-2.8 4.9-3.7 9.2 6.5 1.9 4.9 2.5 1.9.8 7.3-5 9.5-3 10.2-1.5 13.6-.3 4.5.3-3.7 4.3-4.5 5.2-5.9 6.9 8.3 8.8-2.8 2.9h9.4l14.7 7.5v3h7.6v13.4h-259.4z" fill="#FCFCFE"/><path d="M1416.6 263.2v-13h-259.3v13" stroke="#CBDBF7" stroke-width="3" stroke-miterlimit="10" stroke-linecap="round" stroke-linejoin="round"/><path d="M1416.6 253.7h-259.3" stroke="#CBDBF7" stroke-miterlimit="10"/><path d="M1164.7 250.2v3.5M1174.1 250.2v3.5M1183.5 250.2v3.5M1192.8 250.2v3.5M1202.2 250.2v3.5M1211.5 250.2v3.5M1220.9 250.2v3.5M1230.2 250.2v3.5M1239.6 250.2v3.5M1249 250.2v3.5M1258.3 250.2v3.5M1267.7 250.2v3.5M1277 250.2v3.5M1286.4 250.2v3.5M1295.8 250.2v3.5M1305.1 250.2v3.5M1314.5 250.2v3.5M1323.8 250.2v3.5M1333.2 250.2v3.5M1342.6 250.2v3.5M1351.9 250.2v3.5M1361.3 250.2v3.5M1370.6 250.2v3.5M1380 250.2v3.5M1389.3 250.2v3.5M1398.7 250.2v3.5M1408.1 250.2v3.5" stroke="#CBDBF7" stroke-miterlimit="10" stroke-linecap="round" stroke-linejoin="round"/><path d="M1164.1 250.2v-13.9l21.4 7.2.5.3 11.3 6.4" stroke="#CBDBF7" stroke-width="3" stroke-miterlimit="10" stroke-linecap="round" stroke-linejoin="round"/><path d="M1169.6 238.1v-8.6h16.3v14.3M1185.9 229.5l6.4-2.8h15.3l15.1 6.1h8.3l-.1 17.4M1409.1 250.2v-2.9l-14.7-7.3H1339l-11.7-4.9h-83.2l-13.1-2.3" stroke="#CBDBF7" stroke-width="3" stroke-miterlimit="10" stroke-linecap="round" stroke-linejoin="round"/><path d="M1338.8 245.4h55.4l12.3 4.8" stroke="#CBDBF7" stroke-miterlimit="10" stroke-linecap="round" stroke-linejoin="round"/><path d="M1288.7 208.8c1.4-1 2.8-1.9 4.2-2.7 23.8-13.7 49.9-7.7 49.9-7.7l-7.6 18.4M1331 227l-3.4 8.1v15.1" stroke="#CBDBF7" stroke-width="3" stroke-miterlimit="10" stroke-linecap="round" stroke-linejoin="round"/><path d="M1209.4 240.6h16M1236.2 240.6h29.7M1292 240.6h30M1258.8 235.1l29.9-26.3-3.1 26.3M1340.2 240l7.4-18 10 18" stroke="#CBDBF7" stroke-miterlimit="10" stroke-linecap="round" stroke-linejoin="round"/><path d="M1173.2 229.5l-3.6-4.6 3.6-4.3h7.9" stroke="#CBDBF7" stroke-width="3" stroke-miterlimit="10" stroke-linecap="round" stroke-linejoin="round"/><path d="M1182.8 229.5s-.1-12.4-12.4-31c0 0 26.2-3.6 37.3 3.3" stroke="#CBDBF7" stroke-width="3" stroke-miterlimit="10" stroke-linecap="round" stroke-linejoin="round"/><path d="M1211.5 228.3s-1.6-26.2-8.8-43.4c0 0 18.6-.4 31.8 7.9M1339 240s-10.7-19.2-17-24.3c0 0 16.5-.6 25.7 6.3" stroke="#CBDBF7" stroke-width="3" stroke-miterlimit="10" stroke-linecap="round" stroke-linejoin="round"/><path d="M1384.9 240l2.8-2.8-8.3-8.6 14-15.8c-35.4-2.4-45.8 9.2-45.8 9.2" stroke="#CBDBF7" stroke-width="3" stroke-miterlimit="10" stroke-linecap="round" stroke-linejoin="round"/><path d="M1360.4 240s10.6-18.5 33.1-27.2M1326.9 221.2c-1.9 4-3.9 8.6-5.8 13.9M1329.6 216.1c7.2-13.1 13.2-17.6 13.2-17.6M1315.7 235.1l-22.8-28.9M1344.3 219.9l-4.5 19.7M1350.6 219.7l8 20.3M1285.6 203.3l-29.1 31.8M1269.8 225.4l16.4 4.4 18.1-4.4M1343.2 232.8h10.4M1341.6 236.6h14.1M1216.7 230.4s.3-18.1 20.1-26.4M1214.2 228.9s1.9-21.3 21.7-29.6M1191.2 227.2s1.6-15.2 17.3-22M1189.1 228.3s2.2-23 18.6-26.5M1192.5 222l15.1 4.7M1194 218.7l17.2 5.7" stroke="#CBDBF7" stroke-miterlimit="10" stroke-linecap="round" stroke-linejoin="round"/><path d="M1239.1 234.2c.5-43.3-14.8-70.7-14.8-70.7s43.4 4 64.4 45.3" stroke="#CBDBF7" stroke-width="3" stroke-miterlimit="10" stroke-linecap="round" stroke-linejoin="round"/><path d="M1289 209.1l24.5 26M1218.1 223.7l21 6.7M1217.3 227l21.8 6.7" stroke="#CBDBF7" stroke-miterlimit="10" stroke-linecap="round" stroke-linejoin="round"/><path d="M.1 265H1439" stroke="#CBDBF7" stroke-width="3" stroke-miterlimit="10" stroke-linecap="round" stroke-linejoin="round"/></svg>