<svg width="20" height="20" viewBox="0 0 20 20" fill="none" xmlns="http://www.w3.org/2000/svg">
<path d="M10 0.5C12.5399 0.5 14.9211 1.48684 16.7172 3.28285C18.5132 5.07886 19.5 7.46012 19.5 10C19.5 12.5399 18.5132 14.9211 16.7172 16.7172C14.9211 18.5132 12.5399 19.5 10 19.5C7.46012 19.5 5.07886 18.5132 3.28285 16.7172C1.48684 14.9211 0.5 12.5399 0.5 10C0.5 7.46012 1.48684 5.07886 3.28285 3.28285C5.07886 1.48684 7.46012 0.5 10 0.5ZM10 19.3636C12.498 19.3636 14.8516 18.3892 16.6204 16.6204C20.271 12.9697 20.271 7.03026 16.6204 3.37961C14.8516 1.61078 12.498 0.636364 10 0.636364C7.50204 0.636364 5.14844 1.61078 3.37961 3.37961C-0.271038 7.03026 -0.271038 12.9697 3.37961 16.6204C5.14844 18.3892 7.50204 19.3636 10 19.3636Z" fill="#3E4554" stroke="#CED4DF"/>
<path d="M9.64634 9.54968L9.99989 9.90323L10.3534 9.54968L13.9561 5.94699C13.9839 5.91919 14.0251 5.91919 14.0529 5.94699C14.0807 5.97479 14.0807 6.01595 14.0529 6.04375L14.4065 6.39731L14.0529 6.04375L10.4502 9.64645L10.0971 9.99959L10.4498 10.3531L14.0441 13.9558L14.0445 13.9562C14.0723 13.984 14.0723 14.0252 14.0445 14.053L14.0444 14.0529L14.0379 14.0597C14.0316 14.0662 14.0266 14.0691 14.0223 14.0709C14.0176 14.0728 14.0098 14.0749 13.9982 14.0749C13.9948 14.0749 13.9872 14.0741 13.9775 14.07C13.968 14.0661 13.9591 14.0602 13.9519 14.053L10.3492 10.4503L9.99568 10.0968L9.64213 10.4503L6.03943 14.053L6.03937 14.0529L6.03283 14.0597C6.02506 14.0678 6.01144 14.0749 5.99316 14.0749C5.98972 14.0749 5.98216 14.0741 5.97242 14.07C5.96292 14.0661 5.95408 14.0602 5.94688 14.053C5.91908 14.0252 5.91907 13.984 5.94688 13.9562L9.54957 10.3536L9.90312 10L9.54957 9.64645L5.94688 6.04375C5.91907 6.01595 5.91907 5.97479 5.94688 5.94699C5.97468 5.91919 6.01584 5.91919 6.04364 5.94699L9.64634 9.54968Z" fill="#3E4554" stroke="#CED4DF"/>
</svg>
