<svg width="20" height="20" viewBox="0 0 20 20" fill="none" xmlns="http://www.w3.org/2000/svg">
<path d="M19.3926 13.8022L11.6667 6.07781V2.65228C11.6667 2.1115 11.5467 1.56655 11.31 1.05823L11.1342 0.724939C10.9267 0.277477 10.4925 0 10 0C9.50754 0 9.07336 0.277477 8.87503 0.705761L8.68085 1.07655C8.45335 1.56651 8.33335 2.11064 8.33335 2.65224V6.07777L0.610002 13.8005C0.216681 14.1938 0 14.7163 0 15.2729V16.2495C0 16.402 0.0833206 16.542 0.216681 16.6145C0.350001 16.6878 0.513361 16.6828 0.641682 16.5995L8.49503 11.5674C8.57253 12.8281 8.67753 13.8805 8.80585 15.1613L8.93836 16.4737L6.02084 18.401C5.90334 18.4793 5.83334 18.6093 5.83334 18.7493V19.5825C5.83334 19.7083 5.89084 19.8283 5.98916 19.9075C6.08834 19.9875 6.21749 20.0175 6.33999 19.99L10 19.1759L13.66 19.99C13.69 19.9967 13.72 20 13.75 20C13.8442 20 13.9358 19.9683 14.0108 19.9083C14.1092 19.8283 14.1667 19.7083 14.1667 19.5825V18.7493C14.1667 18.6093 14.0967 18.4785 13.9792 18.4018L11.0616 16.477L11.1941 15.1604C11.3225 13.8813 11.4275 12.8298 11.505 11.569L19.3583 16.5994C19.4875 16.6827 19.65 16.6869 19.7825 16.6144C19.9167 16.5419 20 16.4019 20 16.2495V15.2729C20.0001 14.7163 19.7843 14.1938 19.3926 13.8022Z" fill="#ABB3C1"/>
</svg>
