<svg width="20" height="20" viewBox="0 0 20 20" fill="none" xmlns="http://www.w3.org/2000/svg">
<path d="M11.7285 1.37859C11.7285 0.761305 12.2223 0.267477 12.8396 0.267477H18.889C19.5063 0.267477 20.0001 0.761305 20.0001 1.37859V18.5802C20.0001 19.1975 19.5063 19.7325 18.889 19.7325H12.8396C12.2223 19.7325 11.7285 19.1975 11.7285 18.5802C11.7285 17.963 12.2223 17.4691 12.8396 17.4691H17.7367V2.4897H12.8396C12.2223 2.4897 11.7285 1.99587 11.7285 1.37859Z" fill="#ABB3C1"/>
<path d="M14.2387 10.7614L9.71193 15.2882C9.25926 15.7409 8.60082 15.7409 8.14815 15.2882C7.69547 14.8355 7.69547 14.1771 8.14815 13.7244L10.7407 11.0906H1.11111C0.493827 11.0906 0 10.5968 0 9.97954C0 9.36225 0.493827 8.86843 1.11111 8.86843H10.7407L8.14815 6.27583C7.69547 5.82316 7.69547 5.12357 8.14815 4.67089C8.60082 4.21822 9.25926 4.21822 9.71193 4.67089L14.2387 9.19764C14.4444 9.4034 14.5679 9.69147 14.5679 9.97954C14.5679 10.2676 14.4444 10.5557 14.2387 10.7614Z" fill="#ABB3C1"/>
</svg>
