<svg width="15" height="20" viewBox="0 0 15 20" fill="none" xmlns="http://www.w3.org/2000/svg">
<path d="M11.8399 15.3564L11.7978 15.2749C11.7978 15.2478 11.8048 15.2342 11.8188 15.2342C11.8328 15.2342 11.8399 15.2207 11.8399 15.1935C12.2893 15.0305 12.6966 14.8133 13.0618 14.5418C13.427 14.2702 13.6798 13.8765 13.8202 13.3605L13.8413 13.2179C13.8553 13.1229 13.8764 13.0346 13.9045 12.9532V2.32179C13.9045 2.05022 13.8273 1.7787 13.6728 1.50713C13.5181 1.23556 13.3215 0.991161 13.0829 0.773931C12.8441 0.556701 12.5772 0.373401 12.2823 0.224033C11.9874 0.0746639 11.7135 0 11.4607 0H3.58146C3.32865 0 3.05477 0.0679022 2.75983 0.203666C2.46489 0.33943 2.19805 0.515967 1.95927 0.733198C1.72049 0.950428 1.52385 1.19483 1.36938 1.4664C1.21487 1.73796 1.13764 1.99593 1.13764 2.24033V13.0346C1.13764 13.2247 1.17978 13.4148 1.26404 13.6049C1.34831 13.795 1.46069 13.9783 1.60112 14.1548C1.74156 14.3313 1.89607 14.4942 2.06461 14.6436C2.23315 14.793 2.40168 14.9083 2.57022 14.9898C2.65449 15.017 2.78794 15.0645 2.97051 15.1324C3.15308 15.2003 3.24438 15.2478 3.24438 15.2749L0 20H1.89607L4.25562 16.7006H10.7444L13.1039 20H15L11.8399 15.3564ZM5.64607 0.936863C5.64607 0.855397 5.68116 0.773931 5.7514 0.692464C5.82164 0.610998 5.89888 0.570265 5.98315 0.570265H9.01685C9.04496 0.570265 9.10112 0.597434 9.18539 0.651731C9.26966 0.706028 9.3118 0.760367 9.3118 0.814664V1.95519C9.3118 2.03666 9.2767 2.10456 9.20646 2.15886C9.13622 2.21316 9.07302 2.24033 9.01685 2.24033H5.98315C5.92698 2.21316 5.88484 2.18603 5.85674 2.15886C5.80057 2.13169 5.75844 2.09096 5.73034 2.03666C5.67417 1.9822 5.64607 1.9279 5.64607 1.87373V0.936863ZM2.61236 4.03259C2.61236 3.89682 2.64046 3.74745 2.69663 3.58452C2.7809 3.44851 2.8792 3.31271 2.99157 3.17719C3.07584 3.06855 3.19521 2.97352 3.34972 2.89206C3.50423 2.81059 3.66573 2.76986 3.83427 2.76986H11.1657C11.2781 2.76986 11.4185 2.81059 11.5871 2.89206C11.6995 2.94635 11.8259 3.02782 11.9663 3.13646C12.0787 3.21792 12.1629 3.32656 12.2191 3.46232C12.3034 3.57096 12.3455 3.70672 12.3455 3.86965V6.27291C12.3455 6.40868 12.3034 6.53768 12.2191 6.65988C12.1348 6.78208 12.0365 6.89747 11.9242 7.00611C11.7837 7.11475 11.6432 7.19621 11.5028 7.25051C11.3904 7.30481 11.25 7.33198 11.0815 7.33198H3.8764C3.8483 7.33198 3.80617 7.32517 3.75 7.31161C3.69383 7.29804 3.6517 7.27768 3.62359 7.25051C3.34268 7.22334 3.10395 7.09438 2.9073 6.86354C2.71066 6.63271 2.61236 6.38155 2.61236 6.10998V4.03259ZM4.7823 13.442C4.54352 13.6864 4.24159 13.8086 3.8764 13.8086C3.51122 13.8086 3.21628 13.6864 2.99157 13.442C2.76687 13.1976 2.65449 12.8989 2.65449 12.5458C2.65449 12.22 2.77386 11.9416 3.01264 11.7108C3.25142 11.48 3.53933 11.3646 3.8764 11.3646C4.24159 11.3646 4.54357 11.4732 4.7823 11.6904C5.02108 11.9077 5.14045 12.1928 5.14045 12.5458C5.14045 12.8989 5.02108 13.1976 4.7823 13.442ZM10.1756 13.442C9.93678 13.1976 9.81741 12.8989 9.81741 12.5458C9.81741 12.1928 9.94382 11.9077 10.1966 11.6904C10.4494 11.4732 10.7444 11.3646 11.0815 11.3646C11.4466 11.3646 11.7416 11.48 11.9663 11.7108C12.191 11.9416 12.3034 12.22 12.3034 12.5458C12.3034 12.8989 12.191 13.1976 11.9663 13.442C11.7416 13.6864 11.4466 13.8086 11.0815 13.8086C10.7162 13.8086 10.4143 13.6864 10.1756 13.442Z" fill="#ABB3C1"/>
</svg>
