<svg width="40" height="40" viewBox="0 0 40 40" fill="none" xmlns="http://www.w3.org/2000/svg">
<path d="M20 40C31.0457 40 40 31.0457 40 20C40 8.95431 31.0457 0 20 0C8.95431 0 0 8.95431 0 20C0 31.0457 8.95431 40 20 40Z" fill="#F05D5E"/>
<path d="M6.96307 20.8958C6.89212 24.3369 9.26226 27.6208 12.5226 28.6918C15.5937 29.7236 19.3696 28.9517 21.4131 26.3217C22.9052 24.4788 23.2442 22.022 23.0827 19.7268C20.4527 19.7033 17.8226 19.7111 15.1965 19.715C15.1922 20.6519 15.1965 21.5853 15.2004 22.5222C16.7752 22.5657 18.3503 22.5458 19.925 22.5775C19.5275 23.9398 18.622 25.2075 17.2476 25.6995C14.594 26.8689 11.2081 25.3412 10.3732 22.5575C9.3653 19.8918 11.0153 16.675 13.7394 15.8996C15.4286 15.3052 17.1688 15.9744 18.6141 16.8525C19.3464 16.1673 20.0316 15.435 20.7047 14.6949C19.0626 13.3208 16.9524 12.4784 14.783 12.6634C10.5265 12.7141 6.80157 16.6436 6.96307 20.8958Z" fill="#DC4E41"/>
<path d="M28.2013 17.3514C28.1935 18.1351 28.1853 18.9226 28.1814 19.7059C27.3938 19.7137 26.6105 19.7177 25.8269 19.7216C25.8269 20.5052 25.8269 21.2846 25.8269 22.0682C26.6105 22.0721 27.3981 22.076 28.1814 22.0842C28.1892 22.8679 28.1892 23.6511 28.197 24.4387C28.9767 24.4387 29.7604 24.4348 30.5436 24.4387C30.5479 23.6511 30.5515 22.8679 30.5597 22.0803C31.343 22.0764 32.1305 22.0725 32.9141 22.0685C32.9141 21.2849 32.9141 20.5056 32.9141 19.7219C32.1309 19.718 31.3433 19.7141 30.5597 19.7062C30.5554 18.9226 30.5479 18.1351 30.5436 17.3518C29.7604 17.3514 28.9807 17.3514 28.2013 17.3514Z" fill="#DC4E41"/>
<path d="M6.96307 20.8952C6.80157 16.643 10.5261 12.7134 14.7826 12.6625C16.952 12.4774 19.0626 13.3199 20.7044 14.6939C20.0309 15.4344 19.3457 16.1663 18.6138 16.8515C17.1684 15.9734 15.4283 15.3043 13.7391 15.8986C11.0146 16.6744 9.36458 19.8912 10.3728 22.5566C11.2078 25.3403 14.5936 26.8679 17.2472 25.6986C18.6212 25.2066 19.5272 23.9388 19.9247 22.5765C18.3499 22.5452 16.7748 22.5648 15.2001 22.5213C15.1962 21.5843 15.1922 20.651 15.1962 19.714C17.8223 19.7101 20.4523 19.7023 23.0824 19.7258C23.2439 22.0214 22.9052 24.4782 21.4128 26.3207C19.3692 28.9507 15.5937 29.7226 12.5223 28.6908C9.26262 27.6202 6.89213 24.3363 6.96307 20.8952Z" fill="white"/>
<path d="M28.2013 17.3514C28.981 17.3514 29.7604 17.3514 30.5436 17.3514C30.5479 18.1351 30.5554 18.9226 30.5597 19.7059C31.343 19.7137 32.1305 19.7177 32.9141 19.7216C32.9141 20.5052 32.9141 21.2846 32.9141 22.0682C32.1309 22.0721 31.3433 22.076 30.5597 22.08C30.5519 22.8675 30.5479 23.6508 30.5436 24.4383C29.7604 24.4344 28.9764 24.4383 28.197 24.4383C28.1896 23.6508 28.1896 22.8675 28.1814 22.0839C27.3981 22.0757 26.6105 22.0721 25.8269 22.0678C25.8269 21.2842 25.8269 20.5049 25.8269 19.7212C26.6105 19.7173 27.3942 19.7134 28.1814 19.7055C28.1853 18.9226 28.1931 18.1351 28.2013 17.3514Z" fill="white"/>
</svg>
