<svg width="13" height="15" viewBox="0 0 13 15" fill="none" xmlns="http://www.w3.org/2000/svg">
<path opacity="0.5" d="M0.847826 15H12.1522C12.6204 15 13 14.6947 13 14.3182V6.59091C13 6.21436 12.6204 5.90909 12.1522 5.90909H11.3043V3.86364C11.3043 1.73323 9.14912 0 6.5 0C3.85088 0 1.69571 1.73323 1.69571 3.86364V5.90909H0.847826C0.3796 5.90909 0 6.21436 0 6.59091V14.3182C0 14.6947 0.3796 15 0.847826 15ZM3.39136 3.86364C3.39136 2.48514 4.78592 1.36364 6.5 1.36364C8.21414 1.36364 9.6087 2.48514 9.6087 3.86364V5.90909H3.39136V3.86364Z" fill="#9FA8B8"/>
</svg>
