<svg width="144" height="26" viewBox="0 0 144 26" fill="none" xmlns="http://www.w3.org/2000/svg">
<path d="M144 11.2113C144 18.1728 133.882 26 133.882 26C133.882 26 123 18.0798 123 11.2113C123 8.23791 124.106 5.38626 126.075 3.28372C128.045 1.18119 130.715 0 133.5 0C136.285 0 138.955 1.18119 140.925 3.28372C142.894 5.38626 144 8.23791 144 11.2113Z" fill="#406DC6"/>
<path d="M141 12.0505C141 12.1011 140.974 12.4549 140.921 13.1119H130.153C130.347 13.9543 130.806 14.6197 131.529 15.1083C132.252 15.5969 133.152 15.8412 134.228 15.8412C134.968 15.8412 135.621 15.7401 136.185 15.5379C136.767 15.3189 137.305 14.982 137.799 14.5271L139.995 16.8014C138.654 18.2671 136.697 19 134.122 19C132.517 19 131.097 18.7052 129.862 18.1155C128.628 17.509 127.675 16.6751 127.005 15.6137C126.335 14.5523 126 13.3478 126 12C126 10.6691 126.326 9.47292 126.979 8.41155C127.649 7.33333 128.557 6.4994 129.704 5.90975C130.868 5.30325 132.164 5 133.593 5C134.986 5 136.247 5.2864 137.376 5.85921C138.504 6.43201 139.386 7.25752 140.021 8.33574C140.674 9.39711 141 10.6354 141 12.0505ZM133.619 7.98195C132.684 7.98195 131.899 8.23466 131.265 8.74007C130.63 9.24549 130.242 9.93622 130.101 10.8123H137.111C136.97 9.95307 136.582 9.27076 135.947 8.76534C135.312 8.24308 134.536 7.98195 133.619 7.98195Z" fill="white"/>
<path d="M14.5706 11.9884C14.5706 12.0396 14.5449 12.3981 14.4935 13.064H4.03454C4.22299 13.9177 4.66842 14.5922 5.37083 15.0873C6.07323 15.5825 6.94695 15.83 7.992 15.83C8.71153 15.83 9.34541 15.7276 9.89363 15.5227C10.459 15.3007 10.9815 14.9593 11.4612 14.4983L13.5941 16.8033C12.2921 18.2887 10.3905 19.0314 7.8892 19.0314C6.33021 19.0314 4.9511 18.7326 3.75187 18.135C2.55264 17.5204 1.62752 16.6752 0.976514 15.5995C0.325505 14.5239 0 13.3031 0 11.9371C0 10.5883 0.316939 9.37602 0.950816 8.30035C1.60183 7.2076 2.48411 6.36244 3.59768 5.76484C4.72838 5.15017 5.98757 4.84284 7.37525 4.84284C8.72866 4.84284 9.95359 5.1331 11.05 5.71362C12.1465 6.29414 13.0031 7.13077 13.6198 8.22352C14.2537 9.29918 14.5706 10.5541 14.5706 11.9884ZM7.40095 7.86496C6.49296 7.86496 5.7306 8.12107 5.11385 8.63329C4.4971 9.14552 4.1202 9.84556 3.98315 10.7334H10.793C10.656 9.86263 10.2791 9.17113 9.66235 8.65891C9.0456 8.12961 8.2918 7.86496 7.40095 7.86496Z" fill="#3E4554"/>
<path d="M22.4395 4.84284C24.581 4.84284 26.2257 5.35506 27.3735 6.37951C28.5213 7.38688 29.0953 8.91502 29.0953 10.9639V18.8265H25.3434V17.1106C24.5896 18.3912 23.1848 19.0314 21.129 19.0314C20.0668 19.0314 19.1417 18.8522 18.3536 18.4936C17.5827 18.135 16.9916 17.6399 16.5805 17.0081C16.1693 16.3764 15.9637 15.6593 15.9637 14.8568C15.9637 13.5763 16.4434 12.5689 17.4028 11.8347C18.3793 11.1005 19.8783 10.7334 21.8999 10.7334H25.0864C25.0864 9.86263 24.8209 9.19674 24.2898 8.73574C23.7587 8.25766 22.9621 8.01863 21.8999 8.01863C21.1632 8.01863 20.4351 8.13814 19.7156 8.37718C19.0132 8.59915 18.4136 8.90648 17.9167 9.29919L16.4777 6.50757C17.2315 5.97827 18.1309 5.56849 19.1759 5.27823C20.2381 4.98797 21.326 4.84284 22.4395 4.84284ZM22.1312 16.3423C22.8164 16.3423 23.4246 16.1886 23.9557 15.8813C24.4868 15.5568 24.8637 15.0873 25.0864 14.4726V13.064H22.3368C20.6921 13.064 19.8698 13.6019 19.8698 14.6775C19.8698 15.1898 20.0668 15.5995 20.4608 15.9069C20.872 16.1971 21.4288 16.3423 22.1312 16.3423Z" fill="#3E4554"/>
<path d="M37.3747 19.0314C36.2269 19.0314 35.1048 18.8948 34.0083 18.6217C32.9119 18.3314 32.0382 17.9728 31.3872 17.546L32.7235 14.6775C33.3402 15.0702 34.0854 15.3946 34.9592 15.6508C35.8329 15.8898 36.6895 16.0093 37.5289 16.0093C39.225 16.0093 40.073 15.591 40.073 14.7544C40.073 14.3617 39.8417 14.0799 39.3792 13.9092C38.9166 13.7385 38.2056 13.5933 37.2463 13.4738C36.1156 13.3031 35.1819 13.1067 34.4452 12.8847C33.7085 12.6628 33.0661 12.2701 32.5179 11.7066C31.9868 11.1432 31.7212 10.3407 31.7212 9.29919C31.7212 8.42841 31.9697 7.66007 32.4665 6.99418C32.9804 6.31121 33.7171 5.78192 34.6765 5.40629C35.653 5.03066 36.8008 4.84284 38.12 4.84284C39.0965 4.84284 40.0644 4.95382 41.0238 5.17578C42.0003 5.38067 42.8055 5.67093 43.4394 6.04657L42.1031 8.88941C40.8868 8.20644 39.5591 7.86496 38.12 7.86496C37.2634 7.86496 36.6209 7.98448 36.1926 8.22352C35.7644 8.46255 35.5502 8.76989 35.5502 9.14552C35.5502 9.57237 35.7815 9.87117 36.244 10.0419C36.7066 10.2127 37.4433 10.3749 38.454 10.5285C39.5847 10.7163 40.5099 10.9212 41.2294 11.1432C41.9489 11.3481 42.5743 11.7322 43.1053 12.2957C43.6364 12.8591 43.902 13.6445 43.902 14.6519C43.902 15.5056 43.645 16.2654 43.131 16.9313C42.6171 17.5972 41.8633 18.118 40.8696 18.4936C39.8931 18.8522 38.7282 19.0314 37.3747 19.0314Z" fill="#3E4554"/>
<path d="M59.847 5.04773L53.6025 19.6717C52.9686 21.2596 52.1805 22.378 51.2383 23.0268C50.3132 23.6756 49.191 24 47.8719 24C47.1523 24 46.4414 23.889 45.739 23.6671C45.0366 23.4451 44.4626 23.1378 44.0172 22.7451L45.482 19.9022C45.7904 20.1754 46.1416 20.3888 46.5356 20.5425C46.9467 20.6962 47.3493 20.773 47.7434 20.773C48.2916 20.773 48.737 20.6364 49.0797 20.3632C49.4223 20.1071 49.7307 19.6717 50.0048 19.057L50.0562 18.929L44.0686 5.04773H48.2059L52.0863 14.3958L55.9924 5.04773H59.847Z" fill="#3E4554"/>
<path d="M72.5895 6.86612C73.0692 6.20023 73.7116 5.69655 74.5168 5.35506C75.3391 5.01358 76.2814 4.84284 77.3436 4.84284V8.53085C76.8981 8.4967 76.5983 8.47963 76.4441 8.47963C75.2963 8.47963 74.3969 8.80404 73.7459 9.45285C73.0949 10.0846 72.7694 11.0407 72.7694 12.3213V18.8265H68.7605V5.04773H72.5895V6.86612Z" fill="#3E4554"/>
<path d="M86.1804 19.0314C84.7242 19.0314 83.4136 18.7326 82.2486 18.135C81.1008 17.5204 80.2014 16.6752 79.5503 15.5995C78.8993 14.5239 78.5738 13.3031 78.5738 11.9371C78.5738 10.5712 78.8993 9.35041 79.5503 8.27474C80.2014 7.19907 81.1008 6.36244 82.2486 5.76484C83.4136 5.15017 84.7242 4.84284 86.1804 4.84284C87.6366 4.84284 88.9386 5.15017 90.0864 5.76484C91.2342 6.36244 92.1337 7.19907 92.7847 8.27474C93.4357 9.35041 93.7612 10.5712 93.7612 11.9371C93.7612 13.3031 93.4357 14.5239 92.7847 15.5995C92.1337 16.6752 91.2342 17.5204 90.0864 18.135C88.9386 18.7326 87.6366 19.0314 86.1804 19.0314ZM86.1804 15.7532C87.2083 15.7532 88.0477 15.4117 88.6987 14.7288C89.3669 14.0287 89.701 13.0982 89.701 11.9371C89.701 10.7761 89.3669 9.85409 88.6987 9.17113C88.0477 8.47109 87.2083 8.12107 86.1804 8.12107C85.1525 8.12107 84.3044 8.47109 83.6363 9.17113C82.9681 9.85409 82.6341 10.7761 82.6341 11.9371C82.6341 13.0982 82.9681 14.0287 83.6363 14.7288C84.3044 15.4117 85.1525 15.7532 86.1804 15.7532Z" fill="#3E4554"/>
<path d="M110.369 5.04773V18.8265H106.566V17.1874C106.035 17.785 105.401 18.246 104.664 18.5704C103.927 18.8778 103.131 19.0314 102.274 19.0314C100.458 19.0314 99.0191 18.5107 97.957 17.4691C96.8948 16.4276 96.3637 14.8824 96.3637 12.8335V5.04773H100.373V12.2445C100.373 14.4641 101.306 15.5739 103.174 15.5739C104.133 15.5739 104.904 15.2666 105.486 14.6519C106.069 14.0202 106.36 13.0896 106.36 11.8603V5.04773H110.369Z" fill="#3E4554"/>
<path d="M123 18.1607C122.606 18.4509 122.118 18.6729 121.535 18.8265C120.97 18.9631 120.37 19.0314 119.736 19.0314C118.092 19.0314 116.815 18.6131 115.907 17.7765C115.017 16.9399 114.571 15.7105 114.571 14.0885V8.4284H112.438V5.35506H114.571V2H118.58V5.35506H122.023V8.4284H118.58V14.0373C118.58 14.6178 118.726 15.0702 119.017 15.3946C119.325 15.702 119.754 15.8556 120.302 15.8556C120.936 15.8556 121.475 15.6849 121.921 15.3434L123 18.1607Z" fill="#3E4554"/>
</svg>
