<svg width="15" height="17" viewBox="0 0 15 17" fill="none" xmlns="http://www.w3.org/2000/svg">
<g opacity="0.5" clip-path="url(#clip0)">
<path d="M12.621 2.93775H2.36123C1.77914 2.90494 1.20701 3.11764 0.755127 3.53479L1.33654 3.96073L5.75012 7.20079C5.79325 7.21786 5.83268 7.24516 5.86576 7.28088L7.47187 8.46405L13.6425 3.96437L14.2272 3.53479C13.7685 3.13206 13.2011 2.92114 12.621 2.93775Z" fill="#9FA8B8"/>
<path d="M0.893281 4.49592L0.350417 4.09546C0.118696 4.55398 -0.00103964 5.07421 0.00349761 5.60263L0.000285399 11.3874C-0.0078656 12.0042 0.158768 12.6078 0.475693 13.1094L0.931828 12.5742L5.13662 7.62311L0.893281 4.49592Z" fill="#9FA8B8"/>
<path d="M13.604 13.0658L9.31573 8.02734L7.6775 9.22871L7.62289 9.25784H7.59719C7.57053 9.26166 7.54355 9.26166 7.51689 9.25784C7.49023 9.26166 7.46324 9.26166 7.43658 9.25784H7.41088L7.33379 9.22871L5.70841 8.03462L1.39762 13.0804L0.935059 13.6228C1.35931 13.9321 1.85725 14.0858 2.36128 14.0633H12.6404C13.1424 14.0669 13.6346 13.905 14.057 13.5973L13.604 13.0658Z" fill="#9FA8B8"/>
<path d="M14.9983 11.3874V5.61357C15.0126 5.08297 14.8958 4.55842 14.661 4.09912L14.1149 4.49594L9.87476 7.60857L14.0763 12.5633L14.5357 13.1057C14.8567 12.6086 15.0198 12.003 14.9983 11.3874Z" fill="#9FA8B8"/>
</g>
<defs>
<clipPath id="clip0">
<rect width="15" height="17" fill="white"/>
</clipPath>
</defs>
</svg>
