<svg width="40" height="40" viewBox="0 0 40 40" fill="none" xmlns="http://www.w3.org/2000/svg">
<path d="M20 40C31.0457 40 40 31.0457 40 20C40 8.95431 31.0457 0 20 0C8.95431 0 0 8.95431 0 20C0 31.0457 8.95431 40 20 40Z" fill="#55ACEE"/>
<path d="M32.2508 14.3734C31.3938 14.7534 30.4718 15.0105 29.5049 15.1253C30.4921 14.5338 31.2497 13.598 31.6073 12.481C30.6836 13.0289 29.66 13.4265 28.5716 13.6407C27.6995 12.712 26.457 12.1316 25.0812 12.1316C22.4416 12.1316 20.3007 14.2725 20.3007 16.9122C20.3007 17.2869 20.3431 17.6516 20.4251 18.0017C16.452 17.8024 12.9293 15.8993 10.5713 13.0061C10.1598 13.712 9.92383 14.5338 9.92383 15.4098C9.92383 17.068 10.7684 18.5318 12.0505 19.3889C11.2672 19.3643 10.5296 19.1493 9.88533 18.7903C9.88497 18.8106 9.88497 18.8309 9.88497 18.8509C9.88497 21.1672 11.5335 23.0992 13.72 23.5381C13.3193 23.6479 12.8961 23.706 12.4608 23.706C12.1521 23.706 11.853 23.6764 11.5613 23.6208C12.1695 25.5196 13.9347 26.9018 16.0271 26.9407C14.3907 28.2231 12.3296 28.9871 10.0893 28.9871C9.70421 28.9871 9.32274 28.9646 8.94946 28.9201C11.064 30.277 13.5774 31.0681 16.277 31.0681C25.0702 31.0681 29.8789 23.7837 29.8789 17.4658C29.8789 17.2587 29.8743 17.0523 29.865 16.8476C30.7998 16.1738 31.6102 15.3321 32.2508 14.3734Z" fill="white"/>
</svg>
