<svg width="1440" height="234" viewBox="0 0 1440 234" fill="none" xmlns="http://www.w3.org/2000/svg">
<path d="M0 127.7L17.5 114.7L32 125.4V139.4H41.5V117.7L58.3 102L72.8 115.7V140.7H112.5V178H154V144.7L169.6 129.9L186.3 145.7L204.3 138.4L217.6 146.4V160.7L233.8 152L247.9 159L261.6 135.7L275.3 155.7H279.9V116.4H308.3V99.7H311.2V77H313.6V99.7H331.9V156.4H358.3V166H375.9L395.6 147.4L411.7 162.7H419.5V108.7H428.3V96.4L442 83.4L456 95.7V108.7H467.3V73H471.2V48H478.5V15.4H481V48H487.7V72.7H492.3V98.7L509.1 82.7L525.8 98.5H553.1V139L570.7 122.4L586.3 137.2V156.4H603V147H719.9V155H750L767.9 138L783.4 152.7L826.7 111.7L850.2 134H861.5V84.4L881 65.9L898.9 82.9V135H930V64.4H940.2V43.4H944.8V25.4H948.7V0H950.8V25H956.1V43H959.6V65H972.6V135.7H994.4V110L1012.7 92.7L1027.6 106.9L1041.2 71.7L1052.1 106V160.4L1061.6 142L1069.6 159.4L1073.9 140.4L1078.8 157.7H1102.7L1121.3 140L1134 152L1146.5 140.2L1156.5 149.7V95.7H1188.1V149.7H1212.8V107.4H1221.2V95.7L1235.3 82.4L1249 95.4V109H1262.7L1277.6 123.2V137H1303.8L1321.1 120.7L1335.8 134.7L1350.6 120.7L1364.1 133.5L1376.6 121.7L1389.8 134.2H1423.7V38H1441V234H1.1L0 127.7Z" fill="#E3EBFC"/>
</svg>
